<svg width="102" height="21" viewBox="0 0 102 21" fill="none" xmlns="http://www.w3.org/2000/svg">
<path fill-rule="evenodd" clip-rule="evenodd" d="M56.1754 9.21895C56.4055 10.2566 54.9251 11.1306 52.9412 11.4295C52.9468 10.9654 53.1158 9.72852 54.2865 9.11971C55.1061 8.70535 56.0663 8.7252 56.1754 9.21895ZM58.5074 12.9332C58.2604 12.9332 56.8006 14.5411 54.9345 14.6786C53.6203 14.783 52.9163 13.837 52.9163 13.2213C56.9653 12.6487 58.6209 11.0647 58.6209 9.05161C58.6209 7.69906 57.4585 6.27979 55.5481 6.27979C50.6271 6.27979 48.42 13.7032 51.4252 16.3038C52.3133 16.9952 53.5674 17.0781 54.5448 17.0383C57.9354 16.868 60.0351 12.9332 58.5074 12.9332Z" fill="#431BB8"/>
<path fill-rule="evenodd" clip-rule="evenodd" d="M38.9894 6.57328C38.1931 6.91391 37.3614 7.79384 36.818 8.45228L36.9456 7.5774C36.9564 7.48166 37.1712 6.35981 36.3709 6.32574C33.1855 6.18919 32.7202 15.2691 33.6983 16.4743C34.4618 17.4159 35.5363 17.1102 35.6398 16.363C35.7315 15.7102 35.9351 14.3974 36.0826 13.4265C36.258 12.4155 36.4645 11.8166 36.8292 10.9905C37.7402 8.92065 38.1483 9.85915 38.6426 10.7903C39.1972 11.8348 40.165 11.9067 41.2794 11.5993C40.8819 9.36619 41.6537 5.43531 38.9894 6.57328Z" fill="#431BB8"/>
<path fill-rule="evenodd" clip-rule="evenodd" d="M50.0434 15.3099C49.356 15.0557 49.0917 13.9727 49.1877 13.1276L50.0073 7.57624C50.0172 7.48129 50.2331 6.35945 49.4325 6.32453C48.5882 6.28834 47.4803 6.67992 47.291 7.8801C47.1056 9.0559 47.0276 9.72635 46.8779 10.6809C46.7594 11.4812 46.6097 12.2938 46.543 13.0609C46.3912 13.7931 46.1315 14.1474 45.3607 14.1522C44.3829 14.0508 44.4043 13.195 44.507 12.4732L45.1883 7.58909C45.1982 7.49334 45.4141 6.35998 44.613 6.32591C42.3041 6.22702 42.3485 8.69254 42.3485 8.6925C42.1397 10.152 41.886 11.4858 41.7395 12.8951C41.7128 13.4201 41.7031 13.9458 41.7178 14.4514C41.7849 15.0378 41.9627 15.5654 42.3215 15.9987C43.8274 17.8174 46.0897 16.9167 47.2583 16.1221C47.8229 16.8888 48.9098 16.7354 49.9473 16.4936L50.0434 15.3099Z" fill="#431BB8"/>
<path fill-rule="evenodd" clip-rule="evenodd" d="M31.8192 12.7552C32.04 12.3692 32.2399 11.9716 32.4179 11.5641L32.4768 14.307C32.4293 14.4106 32.3794 14.5136 32.3268 14.6166C32.0907 15.0734 31.8034 15.5322 31.3995 15.9485C31.1899 16.1651 30.9563 16.3571 30.7033 16.521C30.4387 16.6891 30.1413 16.8275 29.8248 16.9204C29.5073 17.0121 29.1787 17.0595 28.8482 17.0613C28.6805 17.0619 28.464 17.0512 28.2855 17.0233C27.7084 16.936 27.1712 16.677 26.7437 16.2803C26.4582 16.0162 26.2386 15.7148 26.074 15.4147C25.9182 15.1309 25.7942 14.8309 25.7044 14.52C25.6158 14.2267 25.5595 13.9399 25.5177 13.66C25.438 13.1002 25.4253 12.5637 25.4424 12.0418C25.4606 11.5301 25.5058 11.0197 25.5778 10.5127C25.631 10.1418 25.6962 9.77535 25.7709 9.41266C24.8683 9.14917 23.5366 8.64873 23.5366 8.09272C23.5366 8.09272 23.4765 7.50065 24.1271 7.50065H26.2608C26.3937 7.06344 26.5412 6.63185 26.7025 6.20411C26.8691 5.74957 27.0512 5.30088 27.2488 4.85887C27.4893 4.43428 28.5197 1.75081 30.5717 3.25462C31.228 3.81505 31.3679 4.05077 30.8312 5.06361C30.4141 5.85214 29.997 6.55351 29.6742 7.34332L29.6109 7.50003H31.0888C31.9559 7.50003 32.1711 7.50003 31.9875 8.55271C31.8641 9.26291 31.8996 9.09862 31.8483 9.39937C31.7831 9.78355 31.3938 10.1361 30.7103 10.0868C30.4254 10.0666 29.6337 9.99144 28.7792 9.89667C28.6792 10.2644 28.5899 10.6334 28.5178 11.0011C28.4355 11.4106 28.3691 11.8181 28.3304 12.2162C28.3108 12.4152 28.2982 12.6117 28.2931 12.8032C28.2838 13.0951 28.2946 13.3873 28.3254 13.6777C28.3571 13.8862 28.6222 15.2794 30.0723 14.6533C30.1248 14.6265 30.1763 14.5979 30.2267 14.5673C30.5242 14.3847 30.821 14.1194 31.0894 13.806C31.2236 13.6499 31.3521 13.4818 31.473 13.3049C31.5951 13.1292 31.7097 12.9447 31.8192 12.7552Z" fill="#431BB8"/>
<path fill-rule="evenodd" clip-rule="evenodd" d="M97.4297 17.0462C95.9133 17.0462 94.6461 16.5364 93.6266 15.5168C92.6203 14.4974 92.1172 13.2363 92.1172 11.7338C92.1172 10.2313 92.6203 8.97026 93.6266 7.95063C94.6461 6.93122 95.9133 6.42139 97.4297 6.42139C98.4085 6.42139 99.3012 6.65617 100.106 7.12564C100.911 7.59516 101.521 8.22568 101.937 9.01727L99.7032 10.3251C99.5026 9.90925 99.1939 9.58049 98.7778 9.33906C98.3751 9.09764 97.9195 8.97695 97.4094 8.97695C96.6312 8.97695 95.9873 9.23862 95.4779 9.76179C94.9679 10.2714 94.7128 10.9289 94.7128 11.7338C94.7128 12.5254 94.9679 13.1826 95.4779 13.7058C95.9873 14.2156 96.6312 14.4704 97.4094 14.4704C97.9326 14.4704 98.3954 14.3564 98.7981 14.1283C99.214 13.8869 99.5222 13.5581 99.7235 13.1423L101.978 14.4301C101.534 15.2217 100.911 15.8589 100.106 16.342C99.3012 16.8115 98.4085 17.0462 97.4297 17.0462Z" fill="#431BB8"/>
<path fill-rule="evenodd" clip-rule="evenodd" d="M89.8692 15.5168C88.8359 16.5364 87.5751 17.0462 86.0859 17.0462C84.5968 17.0462 83.3359 16.5364 82.3029 15.5168C81.2833 14.4838 80.7734 13.2227 80.7734 11.7338C80.7734 10.2447 81.2833 8.99028 82.3029 7.97088C83.3359 6.93791 84.5968 6.42139 86.0859 6.42139C87.5751 6.42139 88.8359 6.93791 89.8692 7.97088C90.9019 8.99028 91.4182 10.2447 91.4182 11.7338C91.4182 13.2227 90.9019 14.4838 89.8692 15.5168ZM84.134 13.7259C84.6571 14.249 85.308 14.5108 86.0859 14.5108C86.8639 14.5108 87.5147 14.249 88.0379 13.7259C88.5611 13.2027 88.8225 12.5388 88.8225 11.7338C88.8225 10.9289 88.5611 10.2647 88.0379 9.74155C87.5147 9.21837 86.8639 8.95688 86.0859 8.95688C85.308 8.95688 84.6571 9.21837 84.134 9.74155C83.6243 10.2647 83.3693 10.9289 83.3693 11.7338C83.3693 12.5388 83.6243 13.2027 84.134 13.7259Z" fill="#431BB8"/>
<path fill-rule="evenodd" clip-rule="evenodd" d="M75.8792 6.42139C76.9792 6.42139 77.8848 6.79024 78.5958 7.52812C79.32 8.266 79.6824 9.28541 79.6824 10.5868V16.7645H77.0866V10.9088C77.0866 10.238 76.9055 9.72817 76.5431 9.37938C76.1809 9.01727 75.6981 8.83619 75.0943 8.83619C74.4237 8.83619 73.8871 9.04398 73.4846 9.4598C73.0822 9.87584 72.8808 10.4995 72.8808 11.3314V16.7645H70.2852V6.70313H72.8808V7.82989C73.5113 6.8909 74.5107 6.42139 75.8792 6.42139Z" fill="#431BB8"/>
<path fill-rule="evenodd" clip-rule="evenodd" d="M69.7845 16.7005H66.7039L62.9659 12.1973V16.7005H60.3164V2.81396H62.9659V11.1459L66.4984 6.78158H69.6614L65.5332 11.6815L69.7845 16.7005Z" fill="#431BB8"/>
<path d="M10.0859 0.0498047C15.6283 0.0499511 20.1211 4.54355 20.1211 10.0859C20.1209 15.6281 15.6282 20.1209 10.0859 20.1211C4.54359 20.1211 0.0500191 15.6282 0.0498047 10.0859C0.0498047 4.54346 4.54346 0.0498047 10.0859 0.0498047Z" fill="url(#paint0_linear_4553_1648)" stroke="url(#paint1_linear_4553_1648)" stroke-width="0.1"/>
<path fill-rule="evenodd" clip-rule="evenodd" d="M4.52748 4.14307H15.7136V5.91428V6.98072V14.2103C15.7218 14.5802 15.7196 14.7887 15.3345 15.0881L14.7837 15.5656C14.6824 15.6258 14.6824 15.6389 14.6832 15.5035L14.7286 8.19428C14.7296 8.03175 14.5876 7.94782 14.4332 7.89889L12.1021 7.16018C11.9472 7.11111 11.8066 7.29318 11.8066 7.45557V15.9605H11.6238H9.49193H8.67947V6.98078H4.52734V4.14313L4.52748 4.14307Z" fill="#FEFEFE"/>
<path fill-rule="evenodd" clip-rule="evenodd" d="M12.5414 11.1748C11.9065 11.2937 12.0714 12.1698 12.6706 12.0914C13.3001 12.009 13.1264 11.0653 12.5414 11.1748Z" fill="#FEFEFE"/>
<defs>
<linearGradient id="paint0_linear_4553_1648" x1="10.0857" y1="0" x2="10.0857" y2="20.8014" gradientUnits="userSpaceOnUse">
<stop offset="0.0691397" stop-color="#6541ED"/>
<stop offset="0.589489" stop-color="#5E00E9"/>
<stop offset="1" stop-color="#926FF3"/>
</linearGradient>
<linearGradient id="paint1_linear_4553_1648" x1="10.0857" y1="0" x2="10.0857" y2="20.1711" gradientUnits="userSpaceOnUse">
<stop stop-color="#CAC0FF"/>
<stop offset="0.5" stop-color="#B19EFF"/>
<stop offset="1" stop-color="#724BFF"/>
</linearGradient>
</defs>
</svg>
