<svg width="160" height="30" viewBox="0 0 160 30" fill="none" xmlns="http://www.w3.org/2000/svg">
<path fill-rule="evenodd" clip-rule="evenodd" d="M66.574 13.089C67.0433 15.2055 64.0237 16.9882 59.9772 17.5977C59.9887 16.6512 60.3333 14.1283 62.7211 12.8865C64.3929 12.0414 66.3513 12.0819 66.574 13.089ZM71.3304 20.6649C70.8266 20.6649 67.8491 23.9444 64.0428 24.225C61.3623 24.4378 59.9263 22.5084 59.9263 21.2524C68.1849 20.0845 71.5618 16.8537 71.5618 12.7476C71.5618 9.98887 69.1909 7.09399 65.2944 7.09399C55.2573 7.09399 50.7554 22.2354 56.885 27.5399C58.6965 28.9501 61.2545 29.1193 63.2479 29.0379C70.1636 28.6905 74.4463 20.6649 71.3304 20.6649Z" fill="white"/>
<path fill-rule="evenodd" clip-rule="evenodd" d="M31.527 7.69332C29.9028 8.38809 28.2064 10.1829 27.0981 11.5259L27.3585 9.74141C27.3803 9.54611 27.8186 7.25791 26.1862 7.18841C19.689 6.90989 18.74 25.4301 20.735 27.8884C22.2923 29.8089 24.4839 29.1854 24.695 27.6614C24.882 26.3298 25.2973 23.6521 25.5981 21.6718C25.9559 19.6095 26.3771 18.388 27.1211 16.7031C28.9792 12.4812 29.8115 14.3955 30.8197 16.2948C31.9509 18.4252 33.925 18.5719 36.1979 17.9449C35.3872 13.39 36.9614 5.37222 31.527 7.69332Z" fill="white"/>
<path fill-rule="evenodd" clip-rule="evenodd" d="M54.0734 25.5143C52.6715 24.9959 52.1323 22.7868 52.3281 21.0632L53.9999 9.74009C54.0201 9.54642 54.4605 7.25821 52.8276 7.187C51.1054 7.11317 48.8457 7.91187 48.4595 10.3599C48.0814 12.7581 47.9223 14.1256 47.617 16.0726C47.3753 17.705 47.07 19.3625 46.9338 20.927C46.6242 22.4205 46.0946 23.1431 44.5224 23.1529C42.5279 22.9462 42.5717 21.2006 42.7812 19.7284L44.1707 9.7663C44.1909 9.571 44.6313 7.2593 42.9973 7.1898C38.2881 6.98809 38.3786 12.017 38.3786 12.0169C37.9526 14.9937 37.4352 17.7143 37.1364 20.5888C37.082 21.6598 37.0621 22.7319 37.0922 23.7632C37.2289 24.9593 37.5917 26.0354 38.3234 26.9193C41.395 30.6287 46.0093 28.7918 48.3928 27.1709C49.5445 28.7348 51.7613 28.4219 53.8775 27.9286L54.0734 25.5143Z" fill="white"/>
<path fill-rule="evenodd" clip-rule="evenodd" d="M16.8966 20.3028C17.3471 19.5155 17.7548 18.7046 18.1179 17.8735L18.2379 23.4681C18.1411 23.6794 18.0392 23.8895 17.932 24.0996C17.4504 25.0314 16.8643 25.9671 16.0407 26.8163C15.6131 27.258 15.1367 27.6496 14.6206 27.984C14.081 28.3268 13.4742 28.609 12.8288 28.7985C12.1812 28.9856 11.5109 29.0823 10.8368 29.0859C10.4947 29.0872 10.0532 29.0653 9.68918 29.0085C8.51209 28.8303 7.41625 28.3022 6.54435 27.4929C5.96208 26.9543 5.51411 26.3395 5.17847 25.7273C4.86054 25.1486 4.60777 24.5366 4.42459 23.9025C4.24385 23.3044 4.1289 22.7193 4.04377 22.1484C3.8811 21.0065 3.85525 19.9123 3.89013 18.8478C3.92719 17.804 4.01937 16.7629 4.1664 15.7289C4.27485 14.9724 4.40778 14.2249 4.56015 13.4852C2.71919 12.9477 0.00298389 11.927 0.00298389 10.7929C0.00298389 10.7929 -0.11965 9.58527 1.20746 9.58527H5.5593C5.83041 8.69348 6.13126 7.81317 6.46039 6.94073C6.8001 6.01361 7.17161 5.09841 7.57449 4.19687C8.06512 3.33084 10.1668 -2.14261 14.3521 0.924693C15.6908 2.0678 15.9761 2.54858 14.8814 4.61447C14.0306 6.22281 13.1799 7.6534 12.5215 9.26436L12.3925 9.584H15.4068C17.1755 9.584 17.6144 9.584 17.24 11.7311C16.9883 13.1797 17.0606 12.8446 16.956 13.458C16.823 14.2417 16.029 14.9608 14.6349 14.8603C14.0539 14.819 12.4389 14.6657 10.6961 14.4724C10.4921 15.2225 10.31 15.9751 10.1629 16.7252C9.99509 17.5603 9.85953 18.3915 9.78073 19.2035C9.74079 19.6095 9.71494 20.0103 9.70464 20.4008C9.68566 20.9962 9.70762 21.5921 9.77043 22.1844C9.83504 22.6098 10.3759 25.4515 13.3335 24.1744C13.4407 24.1198 13.5457 24.0613 13.6485 23.9991C14.2553 23.6266 14.8607 23.0853 15.4082 22.4461C15.6818 22.1278 15.9439 21.785 16.1904 21.424C16.4396 21.0658 16.6733 20.6895 16.8966 20.3028Z" fill="white"/>
<path fill-rule="evenodd" clip-rule="evenodd" d="M150.722 29.0549C147.63 29.0549 145.045 28.015 142.965 25.9353C140.913 23.856 139.887 21.2839 139.887 18.2192C139.887 15.1546 140.913 12.5824 142.965 10.5027C145.045 8.42345 147.63 7.38354 150.722 7.38354C152.719 7.38354 154.54 7.86242 156.181 8.82C157.822 9.77767 159.068 11.0637 159.916 12.6783L155.36 15.3458C154.95 14.4977 154.321 13.8271 153.472 13.3347C152.651 12.8423 151.721 12.5961 150.681 12.5961C149.094 12.5961 147.78 13.1298 146.741 14.1969C145.701 15.2364 145.181 16.5774 145.181 18.2192C145.181 19.8338 145.701 21.1743 146.741 22.2414C147.78 23.2813 149.094 23.8011 150.681 23.8011C151.748 23.8011 152.692 23.5685 153.514 23.1032C154.362 22.6108 154.99 21.9402 155.401 21.0921L159.998 23.7188C159.095 25.3333 157.822 26.633 156.181 27.6185C154.54 28.576 152.719 29.0549 150.722 29.0549Z" fill="white"/>
<path fill-rule="evenodd" clip-rule="evenodd" d="M135.302 25.9353C133.195 28.015 130.623 29.0549 127.586 29.0549C124.548 29.0549 121.977 28.015 119.87 25.9353C117.79 23.8283 116.75 21.2561 116.75 18.2192C116.75 15.1819 117.79 12.6233 119.87 10.544C121.977 8.4371 124.548 7.38354 127.586 7.38354C130.623 7.38354 133.195 8.4371 135.302 10.544C137.409 12.6233 138.462 15.1819 138.462 18.2192C138.462 21.2561 137.409 23.8283 135.302 25.9353ZM123.604 22.2824C124.671 23.3495 125.999 23.8833 127.586 23.8833C129.172 23.8833 130.5 23.3495 131.567 22.2824C132.634 21.2153 133.167 19.8611 133.167 18.2192C133.167 16.5774 132.634 15.2227 131.567 14.1556C130.5 13.0885 129.172 12.5551 127.586 12.5551C125.999 12.5551 124.671 13.0885 123.604 14.1556C122.565 15.2227 122.045 16.5774 122.045 18.2192C122.045 19.8611 122.565 21.2153 123.604 22.2824Z" fill="white"/>
<path fill-rule="evenodd" clip-rule="evenodd" d="M106.769 7.38354C109.013 7.38354 110.86 8.13589 112.31 9.64094C113.787 11.146 114.527 13.2253 114.527 15.8796V28.4801H109.232V16.5366C109.232 15.1682 108.863 14.1283 108.123 13.4169C107.385 12.6783 106.4 12.309 105.168 12.309C103.801 12.309 102.706 12.7328 101.885 13.581C101.064 14.4295 100.654 15.7015 100.654 17.3983V28.4801H95.3594V7.95822H100.654V10.2565C101.94 8.34121 103.978 7.38354 106.769 7.38354Z" fill="white"/>
<path fill-rule="evenodd" clip-rule="evenodd" d="M94.339 28.3503H88.0556L80.4315 19.1652V28.3503H75.0273V0.026123H80.4315V17.0207L87.6366 8.1188H94.088L85.6678 18.1132L94.339 28.3503Z" fill="white"/>
</svg>
