<svg width="65" height="65" viewBox="0 0 65 65" fill="none" xmlns="http://www.w3.org/2000/svg">
<g clip-path="url(#clip0_4609_771)">
<path d="M36.5625 46.7188H32.5V42.6562C32.4982 41.0406 31.8556 39.4917 30.7132 38.3493C29.5708 37.2069 28.0219 36.5643 26.4062 36.5625H18.2812C16.6656 36.5643 15.1167 37.2069 13.9743 38.3493C12.8319 39.4917 12.1893 41.0406 12.1875 42.6562V46.7188H8.125V42.6562C8.12817 39.9636 9.19922 37.3822 11.1032 35.4782C13.0072 33.5742 15.5886 32.5032 18.2812 32.5H26.4062C29.0989 32.5032 31.6803 33.5742 33.5843 35.4782C35.4883 37.3822 36.5593 39.9636 36.5625 42.6562V46.7188Z" fill="white"/>
<path d="M22.3438 12.1875C23.549 12.1875 24.7271 12.5449 25.7293 13.2145C26.7314 13.8841 27.5124 14.8358 27.9736 15.9493C28.4349 17.0628 28.5555 18.288 28.3204 19.4701C28.0853 20.6522 27.5049 21.738 26.6527 22.5902C25.8005 23.4424 24.7147 24.0228 23.5326 24.2579C22.3505 24.493 21.1253 24.3724 20.0118 23.9111C18.8983 23.4499 17.9466 22.6689 17.277 21.6668C16.6074 20.6646 16.25 19.4865 16.25 18.2812C16.25 16.6651 16.892 15.1151 18.0348 13.9723C19.1776 12.8295 20.7276 12.1875 22.3438 12.1875ZM22.3438 8.125C20.335 8.125 18.3714 8.72065 16.7012 9.83664C15.0311 10.9526 13.7293 12.5388 12.9606 14.3946C12.1919 16.2504 11.9908 18.2925 12.3827 20.2626C12.7745 22.2328 13.7418 24.0424 15.1622 25.4628C16.5826 26.8832 18.3922 27.8505 20.3624 28.2424C22.3325 28.6342 24.3746 28.4331 26.2304 27.6644C28.0862 26.8957 29.6724 25.5939 30.7884 23.9238C31.9044 22.2536 32.5 20.29 32.5 18.2812C32.5 15.5876 31.43 13.0044 29.5253 11.0997C27.6206 9.19503 25.0374 8.125 22.3438 8.125Z" fill="white"/>
<path d="M60.9375 52.8127H4.0625V56.8752H60.9375V52.8127Z" fill="white"/>
<path d="M44.6875 8.125V12.1875H54.0028L40.625 25.5653L43.4972 28.4375L56.875 15.0597V24.375H60.9375V8.125H44.6875Z" fill="white"/>
</g>
<defs>
<clipPath id="clip0_4609_771">
<rect width="65" height="65" fill="white"/>
</clipPath>
</defs>
</svg>
