<svg width="65" height="65" viewBox="0 0 65 65" fill="none" xmlns="http://www.w3.org/2000/svg">
<path d="M59.8843 17.5175L39.5718 6.34565C39.2719 6.18072 38.9352 6.09424 38.5929 6.09424C38.2507 6.09424 37.914 6.18072 37.6141 6.34565L17.3016 17.5175C16.9831 17.6929 16.7175 17.9505 16.5325 18.2635C16.3476 18.5765 16.25 18.9333 16.25 19.2969C16.25 19.6605 16.3476 20.0174 16.5325 20.3303C16.7175 20.6433 16.9831 20.9009 17.3016 21.0763L36.5617 31.6699V53.4394L30.3944 50.0486L28.4367 53.6072L37.6141 58.6544C37.9139 58.8196 38.2506 58.9063 38.5929 58.9063C38.9352 58.9063 39.272 58.8196 39.5718 58.6544L59.8843 47.4825C60.2029 47.3073 60.4687 47.0497 60.6538 46.7367C60.8389 46.4237 60.9366 46.0668 60.9367 45.7032V19.2969C60.9366 18.9333 60.8389 18.5763 60.6538 18.2633C60.4687 17.9503 60.2029 17.6928 59.8843 17.5175ZM38.5929 10.4439L54.6902 19.2969L38.5929 28.1499L22.4957 19.2969L38.5929 10.4439ZM56.8742 44.5021L40.6242 53.4396V31.6699L56.8742 22.7324V44.5021Z" fill="white"/>
<path d="M4.0625 32.5H20.3125V28.4375H4.0625V32.5Z" fill="white"/>
<path d="M8.125 48.75H24.375V44.6875H8.125V48.75Z" fill="white"/>
<path d="M12.1875 40.625H28.4375V36.5625H12.1875V40.625Z" fill="white"/>
</svg>
