<svg width="32" height="58" viewBox="0 0 32 58" fill="none" xmlns="http://www.w3.org/2000/svg">
<path d="M26.1149 0H5.88506C2.63483 0 0 2.63483 0 5.88506V51.1264C0 54.3767 2.63483 57.0115 5.88506 57.0115H26.1149C29.3652 57.0115 32 54.3767 32 51.1264V5.88506C32 2.63483 29.3652 0 26.1149 0Z" fill="white"/>
<path d="M28.3207 4.41382H3.67704C3.27076 4.41382 2.94141 4.74317 2.94141 5.14945V51.8621C2.94141 52.2684 3.27076 52.5977 3.67704 52.5977H28.3207C28.727 52.5977 29.0563 52.2684 29.0563 51.8621V5.14945C29.0563 4.74317 28.727 4.41382 28.3207 4.41382Z" fill="#926FF3"/>
<path d="M7.09766 27.2182C7.09766 21.9367 11.3793 17.655 16.6609 17.655C21.9425 17.655 26.2241 21.9367 26.2241 27.2182C26.2241 32.4998 21.9425 36.7815 16.6609 36.7815C11.3793 36.7815 7.09766 32.4998 7.09766 27.2182Z" fill="white"/>
<path d="M10.5333 28.9178C9.87431 28.2587 9.87431 27.1902 10.5333 26.5311C11.1924 25.8721 12.2609 25.8721 12.9201 26.5311L16.1023 29.7133C16.7613 30.3725 16.7613 31.441 16.1023 32.1C15.4432 32.7591 14.3747 32.7591 13.7155 32.1L10.5333 28.9178Z" fill="#926FF3"/>
<path d="M13.7208 32.0992C13.0618 31.4402 13.0618 30.3716 13.7208 29.7126L20.0853 23.3481C20.7444 22.689 21.8129 22.689 22.472 23.3481C23.131 24.0071 23.131 25.0757 22.472 25.7347L16.1076 32.0992C15.4484 32.7582 14.3799 32.7582 13.7208 32.0992Z" fill="#431BB8"/>
</svg>
