<svg width="191" height="49" viewBox="0 0 191 49" fill="none" xmlns="http://www.w3.org/2000/svg">
<g clip-path="url(#clip0_4609_586)">
<g clip-path="url(#clip1_4609_586)">
<g clip-path="url(#clip2_4609_586)">
<mask id="mask0_4609_586" style="mask-type:luminance" maskUnits="userSpaceOnUse" x="0" y="0" width="21" height="49">
<path d="M20.8651 0H0.605469V49H20.8651V0Z" fill="white"/>
</mask>
<g mask="url(#mask0_4609_586)">
<path d="M11.4366 46.3368C11.4366 46.3368 15.2319 51.2293 20.4762 47.7583C21.9046 43.2937 18.9926 40.3541 18.0471 39.6917C16.7292 42.3552 17.5987 45.8261 17.5987 45.8261C14.5555 44.4392 11.4297 46.3368 11.4297 46.3368H11.4366Z" fill="#474649"/>
<path d="M5.58984 38.4907C5.58984 38.4907 8.005 43.7972 13.5667 41.7615C15.6645 38.0491 13.8083 34.7989 12.863 33.8191C11.1999 35.9376 11.2413 39.1394 11.262 39.2773C8.78475 37.4694 5.58984 38.4907 5.58984 38.4907Z" fill="#474649"/>
<path d="M2.02344 30.0164C2.02344 30.0164 2.9136 35.4126 8.44774 34.9226C11.0561 32.1003 10.3247 28.8225 9.51731 27.4632C7.62659 28.9744 6.92275 31.7139 6.89515 31.9899C5.08033 29.8715 2.02344 30.0164 2.02344 30.0164Z" fill="#474649"/>
<path d="M0.626029 21.3363C0.626029 21.3363 0.0394917 26.4081 5.13201 27.3948C7.98189 25.4973 8.29242 22.5438 7.79558 20.8119C5.84965 21.7158 4.60068 23.8411 4.45578 24.2276C3.3103 21.978 0.626029 21.3363 0.626029 21.3363Z" fill="#474649"/>
<path d="M1.4277 13.6209C1.4277 13.6209 -0.373304 18.0166 3.93947 20.1695C6.75485 19.093 7.85892 16.74 7.79681 14.7181C5.9613 15.1184 4.45701 16.5605 4.12578 17.0022C3.58064 14.8285 1.4277 13.6209 1.4277 13.6209Z" fill="#474649"/>
<path d="M4.26071 6.56284C4.26071 6.56284 1.63855 10.0752 4.99216 13.0009C7.55912 12.5317 9.12551 10.9239 9.57405 8.73648C7.96625 8.78478 6.46195 9.60593 5.93062 10.0476C5.82021 8.07403 4.26071 6.56284 4.26071 6.56284Z" fill="#474649"/>
<path d="M8.88643 -0.000271188C8.88643 -0.000271188 5.81574 2.6012 8.2102 5.9065C10.4252 5.8099 12.1365 4.96804 13.1164 2.71161C11.7708 2.56669 10.4735 2.91171 9.73519 3.29124C9.8939 1.57993 8.88643 -0.00717163 8.88643 -0.00717163V-0.000271188Z" fill="#474649"/>
</g>
</g>
</g>
</g>
<path d="M57.5678 4.4H59.6378V17H57.5678V4.4ZM66.4037 7.766C67.4357 7.766 68.2697 8.096 68.9057 8.756C69.5417 9.416 69.8597 10.322 69.8597 11.474V17H67.9157V11.672C67.9157 11 67.7357 10.484 67.3757 10.124C67.0157 9.764 66.5237 9.584 65.8997 9.584C65.2157 9.584 64.6637 9.8 64.2437 10.232C63.8237 10.652 63.6137 11.3 63.6137 12.176V17H61.6697V8H63.6137V9.152C64.2017 8.228 65.1317 7.766 66.4037 7.766ZM78.7209 4.4H80.6649V17H78.7209V15.704C77.9889 16.724 76.9389 17.234 75.5709 17.234C74.3349 17.234 73.2789 16.778 72.4029 15.866C71.5269 14.942 71.0889 13.82 71.0889 12.5C71.0889 11.168 71.5269 10.046 72.4029 9.134C73.2789 8.222 74.3349 7.766 75.5709 7.766C76.9389 7.766 77.9889 8.27 78.7209 9.278V4.4ZM73.8429 14.57C74.3829 15.11 75.0609 15.38 75.8769 15.38C76.6929 15.38 77.3709 15.11 77.9109 14.57C78.4509 14.018 78.7209 13.328 78.7209 12.5C78.7209 11.672 78.4509 10.988 77.9109 10.448C77.3709 9.896 76.6929 9.62 75.8769 9.62C75.0609 9.62 74.3829 9.896 73.8429 10.448C73.3029 10.988 73.0329 11.672 73.0329 12.5C73.0329 13.328 73.3029 14.018 73.8429 14.57ZM84.4068 6.29C84.1668 6.53 83.8788 6.65 83.5428 6.65C83.2068 6.65 82.9128 6.53 82.6608 6.29C82.4208 6.038 82.3008 5.744 82.3008 5.408C82.3008 5.072 82.4208 4.784 82.6608 4.544C82.9008 4.292 83.1948 4.166 83.5428 4.166C83.8908 4.166 84.1848 4.292 84.4248 4.544C84.6648 4.784 84.7848 5.072 84.7848 5.408C84.7848 5.744 84.6588 6.038 84.4068 6.29ZM82.5708 17V8H84.5148V17H82.5708ZM93.54 8H95.484V17H93.54V15.704C92.808 16.724 91.758 17.234 90.39 17.234C89.154 17.234 88.098 16.778 87.222 15.866C86.346 14.942 85.908 13.82 85.908 12.5C85.908 11.168 86.346 10.046 87.222 9.134C88.098 8.222 89.154 7.766 90.39 7.766C91.758 7.766 92.808 8.27 93.54 9.278V8ZM88.662 14.57C89.202 15.11 89.88 15.38 90.696 15.38C91.512 15.38 92.19 15.11 92.73 14.57C93.27 14.018 93.54 13.328 93.54 12.5C93.54 11.672 93.27 10.988 92.73 10.448C92.19 9.896 91.512 9.62 90.696 9.62C89.88 9.62 89.202 9.896 88.662 10.448C88.122 10.988 87.852 11.672 87.852 12.5C87.852 13.328 88.122 14.018 88.662 14.57ZM97.3359 8.36L97.0659 4.4H98.9559L98.6859 8.36H97.3359ZM101.571 10.484C101.571 10.784 101.733 11.024 102.057 11.204C102.393 11.372 102.795 11.522 103.263 11.654C103.743 11.774 104.223 11.918 104.703 12.086C105.183 12.254 105.585 12.542 105.909 12.95C106.245 13.346 106.413 13.85 106.413 14.462C106.413 15.326 106.077 16.004 105.405 16.496C104.745 16.988 103.911 17.234 102.903 17.234C102.015 17.234 101.253 17.048 100.617 16.676C99.9808 16.304 99.5188 15.788 99.2308 15.128L100.905 14.156C101.217 15.02 101.883 15.452 102.903 15.452C103.923 15.452 104.433 15.116 104.433 14.444C104.433 14.156 104.265 13.922 103.929 13.742C103.605 13.562 103.203 13.412 102.723 13.292C102.255 13.16 101.781 13.01 101.301 12.842C100.821 12.674 100.413 12.398 100.077 12.014C99.7528 11.618 99.5908 11.12 99.5908 10.52C99.5908 9.692 99.9028 9.026 100.527 8.522C101.163 8.018 101.949 7.766 102.885 7.766C103.629 7.766 104.289 7.934 104.865 8.27C105.453 8.594 105.903 9.05 106.215 9.638L104.577 10.556C104.265 9.872 103.701 9.53 102.885 9.53C102.513 9.53 102.201 9.614 101.949 9.782C101.697 9.938 101.571 10.172 101.571 10.484ZM121.046 9.8H119.03L118.742 11.6H120.758L120.524 13.13H118.49L117.986 16.1H116.384L116.888 13.13H114.872L114.368 16.1H112.766L113.27 13.13H111.218L111.47 11.6H113.522L113.81 9.8H111.758L112.01 8.27H114.08L114.566 5.3H116.168L115.682 8.27H117.698L118.184 5.3H119.786L119.3 8.27H121.298L121.046 9.8ZM117.14 11.6L117.428 9.8H115.412L115.124 11.6H117.14ZM124.94 4.4H126.74V17H124.67V6.614L122.132 7.334L121.628 5.57L124.94 4.4ZM133.693 6.038V7.334L132.073 7.226L133.027 8.522L131.911 9.206L131.119 7.712L130.327 9.206L129.211 8.522L130.183 7.226L128.545 7.334V6.038L130.183 6.146L129.211 4.85L130.327 4.166L131.119 5.66L131.911 4.166L133.027 4.85L132.073 6.146L133.693 6.038ZM35.5961 39.234C34.3841 39.234 33.3521 38.958 32.5001 38.406C31.6601 37.854 31.0721 37.098 30.7361 36.138L32.5181 35.094C33.0221 36.51 34.0661 37.218 35.6501 37.218C36.4301 37.218 37.0121 37.068 37.3961 36.768C37.7921 36.456 37.9901 36.054 37.9901 35.562C37.9901 35.046 37.7801 34.656 37.3601 34.392C36.9401 34.116 36.1961 33.816 35.1281 33.492C34.5281 33.312 34.0421 33.144 33.6701 32.988C33.2981 32.832 32.9021 32.616 32.4821 32.34C32.0741 32.052 31.7681 31.698 31.5641 31.278C31.3601 30.858 31.2581 30.366 31.2581 29.802C31.2581 28.686 31.6541 27.804 32.4461 27.156C33.2381 26.496 34.1921 26.166 35.3081 26.166C36.3161 26.166 37.1981 26.412 37.9541 26.904C38.7101 27.396 39.2921 28.074 39.7001 28.938L37.9541 29.946C37.4261 28.77 36.5441 28.182 35.3081 28.182C34.7081 28.182 34.2281 28.326 33.8681 28.614C33.5081 28.89 33.3281 29.268 33.3281 29.748C33.3281 30.216 33.5081 30.588 33.8681 30.864C34.2401 31.128 34.9061 31.41 35.8661 31.71C36.3461 31.866 36.6941 31.986 36.9101 32.07C37.1381 32.142 37.4501 32.262 37.8461 32.43C38.2541 32.598 38.5601 32.766 38.7641 32.934C38.9681 33.102 39.1841 33.312 39.4121 33.564C39.6521 33.816 39.8201 34.104 39.9161 34.428C40.0121 34.752 40.0601 35.118 40.0601 35.526C40.0601 36.666 39.6461 37.572 38.8181 38.244C38.0021 38.904 36.9281 39.234 35.5961 39.234ZM51.2031 29.766C52.2231 29.766 53.0451 30.096 53.6691 30.756C54.2931 31.416 54.6051 32.304 54.6051 33.42V39H52.6611V33.546C52.6611 32.922 52.5051 32.442 52.1931 32.106C51.8811 31.758 51.4551 31.584 50.9151 31.584C50.3151 31.584 49.8351 31.782 49.4751 32.178C49.1271 32.574 48.9531 33.168 48.9531 33.96V39H47.0091V33.546C47.0091 32.922 46.8591 32.442 46.5591 32.106C46.2711 31.758 45.8571 31.584 45.3171 31.584C44.7291 31.584 44.2491 31.788 43.8771 32.196C43.5051 32.592 43.3191 33.18 43.3191 33.96V39H41.3751V30H43.3191V31.08C43.8951 30.204 44.7531 29.766 45.8931 29.766C47.0451 29.766 47.8971 30.24 48.4491 31.188C49.0491 30.24 49.9671 29.766 51.2031 29.766ZM63.4536 30H65.3976V39H63.4536V37.704C62.7216 38.724 61.6716 39.234 60.3036 39.234C59.0676 39.234 58.0116 38.778 57.1356 37.866C56.2596 36.942 55.8216 35.82 55.8216 34.5C55.8216 33.168 56.2596 32.046 57.1356 31.134C58.0116 30.222 59.0676 29.766 60.3036 29.766C61.6716 29.766 62.7216 30.27 63.4536 31.278V30ZM58.5756 36.57C59.1156 37.11 59.7936 37.38 60.6096 37.38C61.4256 37.38 62.1036 37.11 62.6436 36.57C63.1836 36.018 63.4536 35.328 63.4536 34.5C63.4536 33.672 63.1836 32.988 62.6436 32.448C62.1036 31.896 61.4256 31.62 60.6096 31.62C59.7936 31.62 59.1156 31.896 58.5756 32.448C58.0356 32.988 57.7656 33.672 57.7656 34.5C57.7656 35.328 58.0356 36.018 58.5756 36.57ZM69.2475 31.512C69.7395 30.396 70.6635 29.838 72.0195 29.838V31.944C71.2755 31.896 70.6275 32.076 70.0755 32.484C69.5235 32.88 69.2475 33.54 69.2475 34.464V39H67.3035V30H69.2475V31.512ZM78.3463 31.872H76.1143V36.192C76.1143 36.564 76.1983 36.834 76.3663 37.002C76.5343 37.158 76.7803 37.248 77.1043 37.272C77.4403 37.284 77.8543 37.278 78.3463 37.254V39C76.8583 39.18 75.7903 39.054 75.1423 38.622C74.4943 38.178 74.1703 37.368 74.1703 36.192V31.872H72.5143V30H74.1703V28.056L76.1143 27.48V30H78.3463V31.872ZM86.1734 37.02H91.7534V39H84.1034V26.4H91.6634V28.38H86.1734V31.656H91.2134V33.618H86.1734V37.02ZM97.8963 29.766C98.9283 29.766 99.7623 30.096 100.398 30.756C101.034 31.416 101.352 32.322 101.352 33.474V39H99.4083V33.672C99.4083 33 99.2283 32.484 98.8683 32.124C98.5083 31.764 98.0163 31.584 97.3923 31.584C96.7083 31.584 96.1563 31.8 95.7363 32.232C95.3163 32.652 95.1063 33.3 95.1063 34.176V39H93.1623V30H95.1063V31.152C95.6943 30.228 96.6243 29.766 97.8963 29.766ZM108.108 31.872H105.876V36.192C105.876 36.564 105.96 36.834 106.128 37.002C106.296 37.158 106.542 37.248 106.866 37.272C107.202 37.284 107.616 37.278 108.108 37.254V39C106.62 39.18 105.552 39.054 104.904 38.622C104.256 38.178 103.932 37.368 103.932 36.192V31.872H102.276V30H103.932V28.056L105.876 27.48V30H108.108V31.872ZM111.543 31.512C112.035 30.396 112.959 29.838 114.315 29.838V31.944C113.571 31.896 112.923 32.076 112.371 32.484C111.819 32.88 111.543 33.54 111.543 34.464V39H109.599V30H111.543V31.512ZM121.633 30H123.703L120.247 39.288C119.383 41.616 117.919 42.72 115.855 42.6V40.782C116.467 40.818 116.959 40.686 117.331 40.386C117.703 40.098 118.009 39.642 118.249 39.018L118.339 38.838L114.523 30H116.647L119.329 36.534L121.633 30ZM135.826 30H137.77V39H135.826V37.704C135.094 38.724 134.044 39.234 132.676 39.234C131.44 39.234 130.384 38.778 129.508 37.866C128.632 36.942 128.194 35.82 128.194 34.5C128.194 33.168 128.632 32.046 129.508 31.134C130.384 30.222 131.44 29.766 132.676 29.766C134.044 29.766 135.094 30.27 135.826 31.278V30ZM130.948 36.57C131.488 37.11 132.166 37.38 132.982 37.38C133.798 37.38 134.476 37.11 135.016 36.57C135.556 36.018 135.826 35.328 135.826 34.5C135.826 33.672 135.556 32.988 135.016 32.448C134.476 31.896 133.798 31.62 132.982 31.62C132.166 31.62 131.488 31.896 130.948 32.448C130.408 32.988 130.138 33.672 130.138 34.5C130.138 35.328 130.408 36.018 130.948 36.57ZM144.77 29.766C146.006 29.766 147.062 30.228 147.938 31.152C148.814 32.064 149.252 33.18 149.252 34.5C149.252 35.832 148.814 36.954 147.938 37.866C147.062 38.778 146.006 39.234 144.77 39.234C143.402 39.234 142.352 38.73 141.62 37.722V42.6H139.676V30H141.62V31.296C142.352 30.276 143.402 29.766 144.77 29.766ZM142.43 36.57C142.97 37.11 143.648 37.38 144.464 37.38C145.28 37.38 145.958 37.11 146.498 36.57C147.038 36.018 147.308 35.328 147.308 34.5C147.308 33.672 147.038 32.988 146.498 32.448C145.958 31.896 145.28 31.62 144.464 31.62C143.648 31.62 142.97 31.896 142.43 32.448C141.89 32.988 141.62 33.672 141.62 34.5C141.62 35.328 141.89 36.018 142.43 36.57ZM155.748 29.766C156.984 29.766 158.04 30.228 158.916 31.152C159.792 32.064 160.23 33.18 160.23 34.5C160.23 35.832 159.792 36.954 158.916 37.866C158.04 38.778 156.984 39.234 155.748 39.234C154.38 39.234 153.33 38.73 152.598 37.722V42.6H150.654V30H152.598V31.296C153.33 30.276 154.38 29.766 155.748 29.766ZM153.408 36.57C153.948 37.11 154.626 37.38 155.442 37.38C156.258 37.38 156.936 37.11 157.476 36.57C158.016 36.018 158.286 35.328 158.286 34.5C158.286 33.672 158.016 32.988 157.476 32.448C156.936 31.896 156.258 31.62 155.442 31.62C154.626 31.62 153.948 31.896 153.408 32.448C152.868 32.988 152.598 33.672 152.598 34.5C152.598 35.328 152.868 36.018 153.408 36.57Z" fill="black" fill-opacity="0.88"/>
<g clip-path="url(#clip3_4609_586)">
<g clip-path="url(#clip4_4609_586)">
<g clip-path="url(#clip5_4609_586)">
<mask id="mask1_4609_586" style="mask-type:luminance" maskUnits="userSpaceOnUse" x="170" y="0" width="21" height="49">
<path d="M170.135 0H190.395V49H170.135V0Z" fill="white"/>
</mask>
<g mask="url(#mask1_4609_586)">
<path d="M179.563 46.3368C179.563 46.3368 175.768 51.2293 170.524 47.7583C169.095 43.2937 172.007 40.3541 172.953 39.6917C174.271 42.3552 173.401 45.8261 173.401 45.8261C176.444 44.4392 179.57 46.3368 179.57 46.3368H179.563Z" fill="#474649"/>
<path d="M185.41 38.4907C185.41 38.4907 182.995 43.7972 177.433 41.7615C175.335 38.0491 177.192 34.7989 178.137 33.8191C179.8 35.9376 179.759 39.1394 179.738 39.2773C182.215 37.4694 185.41 38.4907 185.41 38.4907Z" fill="#474649"/>
<path d="M188.977 30.0164C188.977 30.0164 188.086 35.4126 182.552 34.9226C179.944 32.1003 180.675 28.8225 181.483 27.4632C183.373 28.9744 184.077 31.7139 184.105 31.9899C185.92 29.8715 188.977 30.0164 188.977 30.0164Z" fill="#474649"/>
<path d="M190.374 21.3363C190.374 21.3363 190.961 26.4081 185.868 27.3948C183.018 25.4973 182.708 22.5438 183.204 20.8119C185.15 21.7158 186.399 23.8411 186.544 24.2276C187.69 21.978 190.374 21.3363 190.374 21.3363Z" fill="#474649"/>
<path d="M189.572 13.6209C189.572 13.6209 191.373 18.0166 187.061 20.1695C184.245 19.093 183.141 16.74 183.203 14.7181C185.039 15.1184 186.543 16.5605 186.874 17.0022C187.419 14.8285 189.572 13.6209 189.572 13.6209Z" fill="#474649"/>
<path d="M186.739 6.56284C186.739 6.56284 189.361 10.0752 186.008 13.0009C183.441 12.5317 181.874 10.9239 181.426 8.73648C183.034 8.78478 184.538 9.60593 185.069 10.0476C185.18 8.07403 186.739 6.56284 186.739 6.56284Z" fill="#474649"/>
<path d="M182.114 -0.000271188C182.114 -0.000271188 185.184 2.6012 182.79 5.9065C180.575 5.8099 178.863 4.96804 177.884 2.71161C179.229 2.56669 180.526 2.91171 181.265 3.29124C181.106 1.57993 182.114 -0.00717163 182.114 -0.00717163V-0.000271188Z" fill="#474649"/>
</g>
</g>
</g>
</g>
<defs>
<clipPath id="clip0_4609_586">
<rect width="21" height="49" fill="white"/>
</clipPath>
<clipPath id="clip1_4609_586">
<rect width="21" height="49" fill="white"/>
</clipPath>
<clipPath id="clip2_4609_586">
<rect width="20.825" height="49" fill="white" transform="translate(0.0859375)"/>
</clipPath>
<clipPath id="clip3_4609_586">
<rect width="21" height="49" fill="white" transform="matrix(-1 0 0 1 191 0)"/>
</clipPath>
<clipPath id="clip4_4609_586">
<rect width="21" height="49" fill="white" transform="matrix(-1 0 0 1 191 0)"/>
</clipPath>
<clipPath id="clip5_4609_586">
<rect width="20.825" height="49" fill="white" transform="matrix(-1 0 0 1 190.914 0)"/>
</clipPath>
</defs>
</svg>
