<svg width="49" height="52" viewBox="0 0 49 52" fill="none" xmlns="http://www.w3.org/2000/svg">
<path d="M10.4082 0.457053C11.7883 0.995575 11.7349 2.79469 10.6353 3.89428L4.47717 10.0524C3.37757 11.152 1.57846 11.2054 1.03994 9.82528C0.713858 8.98961 0.559523 8.08836 0.585741 7.17299C0.611959 6.25761 0.818217 5.34603 1.19274 4.4903C1.56726 3.63457 2.10271 2.85145 2.76852 2.18564C3.43433 1.51983 4.21745 0.984379 5.07318 0.609857C5.92891 0.235336 6.84049 0.0290767 7.75587 0.0028587C8.67125 -0.0233593 9.57249 0.130976 10.4082 0.457053Z" fill="white"/>
<path d="M26.4062 13.6479C26.4062 12.5261 25.4968 11.6167 24.375 11.6167C23.2532 11.6167 22.3437 12.5261 22.3437 13.6479V29.8979C22.3437 31.0198 23.2532 31.9292 24.375 31.9292H35.2083C36.3302 31.9292 37.2396 31.0198 37.2396 29.8979C37.2396 28.7761 36.3302 27.8667 35.2083 27.8667H26.4062V13.6479Z" fill="white"/>
<path fill-rule="evenodd" clip-rule="evenodd" d="M48.75 27.1896C48.75 40.6516 37.8369 51.5646 24.375 51.5646C10.9131 51.5646 0 40.6516 0 27.1896C0 13.7277 10.9131 2.81461 24.375 2.81461C37.8369 2.81461 48.75 13.7277 48.75 27.1896ZM44.6875 27.1896C44.6875 38.4079 35.5933 47.5021 24.375 47.5021C13.1567 47.5021 4.0625 38.4079 4.0625 27.1896C4.0625 15.9713 13.1567 6.87711 24.375 6.87711C35.5933 6.87711 44.6875 15.9713 44.6875 27.1896Z" fill="white"/>
<path d="M38.1268 3.89428C37.0272 2.79469 36.9738 0.995575 38.3539 0.457053C39.1896 0.130976 40.0908 -0.0233593 41.0062 0.0028587C41.9216 0.0290767 42.8332 0.235336 43.6889 0.609857C44.5446 0.984379 45.3277 1.51983 45.9935 2.18564C46.6594 2.85145 47.1948 3.63457 47.5693 4.4903C47.9438 5.34603 48.1501 6.25761 48.1763 7.17299C48.2025 8.08836 48.0482 8.98961 47.7221 9.82528C47.1836 11.2054 45.3845 11.152 44.2849 10.0524L38.1268 3.89428Z" fill="white"/>
</svg>
