<svg width="150" height="26" viewBox="0 0 150 26" fill="none" xmlns="http://www.w3.org/2000/svg">
<rect width="149.5" height="25.5" rx="12.75" fill="url(#paint0_linear_4609_567)"/>
<g clip-path="url(#clip0_4609_567)">
<g clip-path="url(#clip1_4609_567)">
<g clip-path="url(#clip2_4609_567)">
<mask id="mask0_4609_567" style="mask-type:luminance" maskUnits="userSpaceOnUse" x="7" y="4" width="18" height="18">
<path d="M24.5 4H7V21.5H24.5V4Z" fill="white"/>
</mask>
<g mask="url(#mask0_4609_567)">
<path d="M15.75 21.5C20.5824 21.5 24.5 17.5824 24.5 12.75C24.5 7.91751 20.5824 4 15.75 4C10.9175 4 7 7.91751 7 12.75C7 17.5824 10.9175 21.5 15.75 21.5Z" fill="white"/>
<path d="M20.2809 9.11974C20.6567 9.52968 20.6567 10.1947 20.2809 10.6046L14.9871 16.3796C14.6109 16.7895 14.0014 16.7895 13.6256 16.3796L11.2194 13.7546C10.8435 13.3447 10.8435 12.6797 11.2194 12.2697C11.5956 11.8598 12.2046 11.8598 12.5809 12.2697L14.3064 14.1523L18.9194 9.11974C19.2956 8.7098 19.9051 8.7098 20.2809 9.11974Z" fill="#431BB8"/>
</g>
</g>
</g>
</g>
<path d="M33.164 15.9021C32.3996 15.9021 31.7444 15.7227 31.1984 15.3639C30.6602 15.0051 30.2819 14.5137 30.0635 13.8897L30.9995 13.3515C31.3193 14.3421 32.0486 14.8374 33.1874 14.8374C33.749 14.8374 34.178 14.7243 34.4744 14.4981C34.7708 14.2641 34.919 13.956 34.919 13.5738C34.919 13.1838 34.7708 12.8913 34.4744 12.6963C34.178 12.5013 33.6827 12.2946 32.9885 12.0762C32.6453 11.967 32.384 11.8812 32.2046 11.8188C32.0252 11.7486 31.799 11.6472 31.526 11.5146C31.2608 11.3742 31.0619 11.2338 30.9293 11.0934C30.7967 10.9452 30.6758 10.7541 30.5666 10.5201C30.4652 10.2861 30.4145 10.0209 30.4145 9.7245C30.4145 9.0147 30.6641 8.4531 31.1633 8.0397C31.6625 7.6185 32.2709 7.4079 32.9885 7.4079C33.6359 7.4079 34.1975 7.5717 34.6733 7.8993C35.1569 8.2269 35.5196 8.6598 35.7614 9.198L34.8488 9.7245C34.4978 8.8821 33.8777 8.4609 32.9885 8.4609C32.5439 8.4609 32.1851 8.5701 31.9121 8.7885C31.6391 9.0069 31.5026 9.3033 31.5026 9.6777C31.5026 10.0365 31.6313 10.3095 31.8887 10.4967C32.1461 10.6839 32.5907 10.8789 33.2225 11.0817C33.4487 11.1519 33.6086 11.2026 33.7022 11.2338C33.7958 11.265 33.9401 11.3196 34.1351 11.3976C34.3379 11.4756 34.4861 11.538 34.5797 11.5848C34.6733 11.6316 34.7981 11.6979 34.9541 11.7837C35.1179 11.8695 35.2388 11.9514 35.3168 12.0294C35.3948 12.1074 35.4845 12.2049 35.5859 12.3219C35.6951 12.4311 35.7731 12.5442 35.8199 12.6612C35.8667 12.7782 35.9057 12.9147 35.9369 13.0707C35.9759 13.2189 35.9954 13.3788 35.9954 13.5504C35.9954 14.268 35.7341 14.8413 35.2115 15.2703C34.6889 15.6915 34.0064 15.9021 33.164 15.9021ZM40.1896 10.8828H38.6335V14.0535C38.6335 14.3421 38.6881 14.5488 38.7973 14.6736C38.9143 14.7906 39.0898 14.853 39.3238 14.8608C39.5578 14.8608 39.8464 14.853 40.1896 14.8374V15.75C39.3004 15.867 38.6491 15.7968 38.2357 15.5394C37.8223 15.2742 37.6156 14.7789 37.6156 14.0535V10.8828H36.4573V9.9H37.6156V8.5662L38.6335 8.262V9.9H40.1896V10.8828ZM45.9414 9.9H46.9593V15.75H45.9414V14.7438C45.4344 15.516 44.6973 15.9021 43.7301 15.9021C42.9111 15.9021 42.213 15.6057 41.6358 15.0129C41.0586 14.4123 40.77 13.683 40.77 12.825C40.77 11.967 41.0586 11.2416 41.6358 10.6488C42.213 10.0482 42.9111 9.7479 43.7301 9.7479C44.6973 9.7479 45.4344 10.134 45.9414 10.9062V9.9ZM43.8588 14.9193C44.4516 14.9193 44.9469 14.7204 45.3447 14.3226C45.7425 13.917 45.9414 13.4178 45.9414 12.825C45.9414 12.2322 45.7425 11.7369 45.3447 11.3391C44.9469 10.9335 44.4516 10.7307 43.8588 10.7307C43.2738 10.7307 42.7824 10.9335 42.3846 11.3391C41.9868 11.7369 41.7879 12.2322 41.7879 12.825C41.7879 13.4178 41.9868 13.917 42.3846 14.3226C42.7824 14.7204 43.2738 14.9193 43.8588 14.9193ZM49.5194 10.8828C49.8548 10.1574 50.4632 9.7947 51.3446 9.7947V10.8594C50.8454 10.836 50.4164 10.9686 50.0576 11.2572C49.6988 11.5458 49.5194 12.0099 49.5194 12.6495V15.75H48.5015V9.9H49.5194V10.8828ZM55.6601 10.8828H54.104V14.0535C54.104 14.3421 54.1586 14.5488 54.2678 14.6736C54.3848 14.7906 54.5603 14.853 54.7943 14.8608C55.0283 14.8608 55.3169 14.853 55.6601 14.8374V15.75C54.7709 15.867 54.1196 15.7968 53.7062 15.5394C53.2928 15.2742 53.0861 14.7789 53.0861 14.0535V10.8828H51.9278V9.9H53.0861V8.5662L54.104 8.262V9.9H55.6601V10.8828ZM57.38 8.8353C57.185 8.8353 57.0212 8.769 56.8886 8.6364C56.756 8.5038 56.6897 8.3439 56.6897 8.1567C56.6897 7.9695 56.756 7.8096 56.8886 7.677C57.0212 7.5366 57.185 7.4664 57.38 7.4664C57.5672 7.4664 57.7271 7.5366 57.8597 7.677C57.9923 7.8096 58.0586 7.9695 58.0586 8.1567C58.0586 8.3439 57.9923 8.5038 57.8597 8.6364C57.7271 8.769 57.5672 8.8353 57.38 8.8353ZM56.8652 15.75V9.9H57.8831V15.75H56.8652ZM62.3493 9.7479C63.0357 9.7479 63.5856 9.9663 63.999 10.4031C64.4124 10.8321 64.6191 11.4171 64.6191 12.1581V15.75H63.6012V12.2166C63.6012 11.7408 63.4725 11.3742 63.2151 11.1168C62.9577 10.8516 62.6028 10.719 62.1504 10.719C61.6434 10.719 61.2339 10.8789 60.9219 11.1987C60.6099 11.5107 60.4539 11.9943 60.4539 12.6495V15.75H59.436V9.9H60.4539V10.7424C60.8673 10.0794 61.4991 9.7479 62.3493 9.7479ZM70.8956 9.9H71.9018V15.5043C71.9018 16.3701 71.6093 17.0409 71.0243 17.5167C70.4393 18.0003 69.7373 18.2421 68.9183 18.2421C68.2631 18.2421 67.6976 18.1173 67.2218 17.8677C66.746 17.6259 66.3872 17.2749 66.1454 16.8147L67.0346 16.3116C67.3544 16.9668 67.9901 17.2944 68.9417 17.2944C69.5501 17.2944 70.0259 17.1345 70.3691 16.8147C70.7201 16.4949 70.8956 16.0581 70.8956 15.5043V14.6736C70.3808 15.4536 69.6476 15.8436 68.696 15.8436C67.8614 15.8436 67.1555 15.5472 66.5783 14.9544C66.0011 14.3616 65.7125 13.6401 65.7125 12.7899C65.7125 11.9397 66.0011 11.2221 66.5783 10.6371C67.1555 10.0443 67.8614 9.7479 68.696 9.7479C69.6554 9.7479 70.3886 10.134 70.8956 10.9062V9.9ZM67.3271 14.2758C67.7249 14.6736 68.2202 14.8725 68.813 14.8725C69.4058 14.8725 69.9011 14.6736 70.2989 14.2758C70.6967 13.878 70.8956 13.3827 70.8956 12.7899C70.8956 12.2049 70.6967 11.7135 70.2989 11.3157C69.9011 10.9179 69.4058 10.719 68.813 10.719C68.2202 10.719 67.7249 10.9179 67.3271 11.3157C66.9293 11.7135 66.7304 12.2049 66.7304 12.7899C66.7304 13.3827 66.9293 13.878 67.3271 14.2758ZM81.2128 9.9H82.2307V15.75H81.2128V14.7438C80.7058 15.516 79.9687 15.9021 79.0015 15.9021C78.1825 15.9021 77.4844 15.6057 76.9072 15.0129C76.33 14.4123 76.0414 13.683 76.0414 12.825C76.0414 11.967 76.33 11.2416 76.9072 10.6488C77.4844 10.0482 78.1825 9.7479 79.0015 9.7479C79.9687 9.7479 80.7058 10.134 81.2128 10.9062V9.9ZM79.1302 14.9193C79.723 14.9193 80.2183 14.7204 80.6161 14.3226C81.0139 13.917 81.2128 13.4178 81.2128 12.825C81.2128 12.2322 81.0139 11.7369 80.6161 11.3391C80.2183 10.9335 79.723 10.7307 79.1302 10.7307C78.5452 10.7307 78.0538 10.9335 77.656 11.3391C77.2582 11.7369 77.0593 12.2322 77.0593 12.825C77.0593 13.4178 77.2582 13.917 77.656 14.3226C78.0538 14.7204 78.5452 14.9193 79.1302 14.9193ZM86.9553 10.8828H85.3992V14.0535C85.3992 14.3421 85.4538 14.5488 85.563 14.6736C85.68 14.7906 85.8555 14.853 86.0895 14.8608C86.3235 14.8608 86.6121 14.853 86.9553 14.8374V15.75C86.0661 15.867 85.4148 15.7968 85.0014 15.5394C84.588 15.2742 84.3813 14.7789 84.3813 14.0535V10.8828H83.223V9.9H84.3813V8.5662L85.3992 8.262V9.9H86.9553V10.8828ZM91.8919 8.8353C91.6969 8.8353 91.5331 8.769 91.4005 8.6364C91.2679 8.5038 91.2016 8.3439 91.2016 8.1567C91.2016 7.9695 91.2679 7.8096 91.4005 7.677C91.5331 7.5366 91.6969 7.4664 91.8919 7.4664C92.0791 7.4664 92.239 7.5366 92.3716 7.677C92.5042 7.8096 92.5705 7.9695 92.5705 8.1567C92.5705 8.3439 92.5042 8.5038 92.3716 8.6364C92.239 8.769 92.0791 8.8353 91.8919 8.8353ZM91.3771 16.101V9.9H92.395V16.101C92.395 16.8576 92.2039 17.4153 91.8217 17.7741C91.4395 18.1407 90.8779 18.2967 90.1369 18.2421V17.2593C90.5659 17.2983 90.8779 17.2281 91.0729 17.0487C91.2757 16.8693 91.3771 16.5534 91.3771 16.101ZM97.9784 9.9H98.9963V15.75H97.9784V14.9076C97.565 15.5706 96.9332 15.9021 96.083 15.9021C95.3966 15.9021 94.8467 15.6876 94.4333 15.2586C94.0199 14.8218 93.8132 14.2329 93.8132 13.4919V9.9H94.8311V13.4334C94.8311 13.9092 94.9598 14.2797 95.2172 14.5449C95.4746 14.8023 95.8295 14.931 96.2819 14.931C96.7889 14.931 97.1984 14.775 97.5104 14.463C97.8224 14.1432 97.9784 13.6557 97.9784 13.0005V9.9ZM101.412 11.4795C101.412 11.7057 101.525 11.889 101.751 12.0294C101.978 12.162 102.251 12.2712 102.57 12.357C102.89 12.435 103.21 12.5286 103.53 12.6378C103.85 12.7392 104.123 12.9186 104.349 13.176C104.575 13.4256 104.688 13.7493 104.688 14.1471C104.688 14.6775 104.481 15.1026 104.068 15.4224C103.662 15.7422 103.14 15.9021 102.5 15.9021C101.931 15.9021 101.443 15.7773 101.038 15.5277C100.632 15.2781 100.343 14.9466 100.172 14.5332L101.049 14.0301C101.143 14.3109 101.318 14.5332 101.576 14.697C101.833 14.8608 102.141 14.9427 102.5 14.9427C102.836 14.9427 103.112 14.8803 103.331 14.7555C103.549 14.6229 103.658 14.4201 103.658 14.1471C103.658 13.9209 103.545 13.7415 103.319 13.6089C103.093 13.4685 102.82 13.3593 102.5 13.2813C102.18 13.1955 101.861 13.098 101.541 12.9888C101.221 12.8796 100.948 12.7002 100.722 12.4506C100.496 12.201 100.382 11.8812 100.382 11.4912C100.382 10.9842 100.577 10.5669 100.967 10.2393C101.365 9.9117 101.861 9.7479 102.453 9.7479C102.929 9.7479 103.35 9.8571 103.717 10.0755C104.091 10.2861 104.372 10.5825 104.559 10.9647L103.705 11.4444C103.495 10.9452 103.077 10.6956 102.453 10.6956C102.165 10.6956 101.919 10.7658 101.716 10.9062C101.513 11.0388 101.412 11.2299 101.412 11.4795ZM108.847 10.8828H107.291V14.0535C107.291 14.3421 107.346 14.5488 107.455 14.6736C107.572 14.7906 107.747 14.853 107.981 14.8608C108.215 14.8608 108.504 14.853 108.847 14.8374V15.75C107.958 15.867 107.307 15.7968 106.893 15.5394C106.48 15.2742 106.273 14.7789 106.273 14.0535V10.8828H105.115V9.9H106.273V8.5662L107.291 8.262V9.9H108.847V10.8828ZM115.375 15.75L113.164 11.889V11.3742H113.421C113.834 11.3742 114.182 11.3352 114.462 11.2572C114.751 11.1792 114.977 11.0505 115.141 10.8711C115.305 10.6917 115.402 10.446 115.433 10.134H113.164V9.3852H115.422C115.367 9.0966 115.258 8.8626 115.094 8.6832C114.93 8.496 114.708 8.3595 114.427 8.2737C114.154 8.1879 113.819 8.145 113.421 8.145H113.164V7.3962H118.007V8.145H115.796C115.976 8.2932 116.124 8.4687 116.241 8.6715C116.358 8.8743 116.432 9.1122 116.463 9.3852H118.007V10.134H116.486C116.432 10.7034 116.213 11.148 115.831 11.4678C115.457 11.7798 114.958 11.9787 114.334 12.0645L116.568 15.75H115.375ZM119.356 15.75V14.8608L122.246 11.9124C123.018 11.1402 123.404 10.4772 123.404 9.9234C123.404 9.4632 123.264 9.1044 122.983 8.847C122.702 8.5896 122.359 8.4609 121.953 8.4609C121.181 8.4609 120.62 8.8275 120.269 9.5607L119.356 9.0225C119.613 8.4921 119.968 8.0904 120.421 7.8174C120.881 7.5444 121.388 7.4079 121.942 7.4079C122.628 7.4079 123.225 7.6341 123.732 8.0865C124.239 8.5389 124.492 9.1473 124.492 9.9117C124.492 10.7385 124.005 11.6394 123.03 12.6144L120.936 14.697H124.644V15.75H119.356ZM131.439 13.176V14.1939H130.445V15.75H129.357V14.1939H125.18V13.176L128.117 7.56H129.287L126.35 13.176H129.357V10.8594H130.445V13.176H131.439ZM137.424 10.1574C137.424 10.7892 137.257 11.3391 136.921 11.8071H136.933L134.289 15.75H133.06L135.003 12.8835C134.831 12.8991 134.698 12.9069 134.605 12.9069C133.778 12.9069 133.099 12.6534 132.569 12.1464C132.046 11.6316 131.785 10.9686 131.785 10.1574C131.785 9.3462 132.046 8.6871 132.569 8.1801C133.099 7.6653 133.778 7.4079 134.605 7.4079C135.432 7.4079 136.106 7.6653 136.629 8.1801C137.159 8.6871 137.424 9.3462 137.424 10.1574ZM133.341 8.9172C133.021 9.2292 132.861 9.6426 132.861 10.1574C132.861 10.6722 133.021 11.0895 133.341 11.4093C133.669 11.7213 134.09 11.8773 134.605 11.8773C135.12 11.8773 135.537 11.7213 135.857 11.4093C136.184 11.0895 136.348 10.6722 136.348 10.1574C136.348 9.6426 136.188 9.2292 135.868 8.9172C135.549 8.6052 135.127 8.4492 134.605 8.4492C134.09 8.4492 133.669 8.6052 133.341 8.9172ZM141.696 8.613V9.3618L140.631 9.315L141.251 10.1691L140.584 10.5669L140.058 9.6075L139.531 10.5669L138.876 10.1691L139.485 9.315L138.432 9.3618V8.613L139.485 8.6715L138.876 7.8057L139.531 7.4079L140.058 8.3673L140.584 7.4079L141.251 7.8057L140.631 8.6715L141.696 8.613Z" fill="black" fill-opacity="0.88"/>
<defs>
<linearGradient id="paint0_linear_4609_567" x1="0" y1="12.75" x2="149.5" y2="12.75" gradientUnits="userSpaceOnUse">
<stop stop-color="#9B76F9" stop-opacity="0.56"/>
<stop offset="0.9877" stop-color="#EC4699" stop-opacity="0.08"/>
</linearGradient>
<clipPath id="clip0_4609_567">
<rect width="17.5" height="17.5" fill="white" transform="translate(7 4)"/>
</clipPath>
<clipPath id="clip1_4609_567">
<rect width="17.5" height="17.5" fill="white" transform="translate(7 4)"/>
</clipPath>
<clipPath id="clip2_4609_567">
<rect width="17.5" height="17.5" fill="white" transform="translate(7 4)"/>
</clipPath>
</defs>
</svg>
