<svg width="240" height="70" viewBox="0 0 240 70" fill="none" xmlns="http://www.w3.org/2000/svg">
<g filter="url(#filter0_d_4609_713)">
<rect x="6" y="5" width="228" height="58" rx="14" fill="#431BB8" shape-rendering="crispEdges"/>
<path d="M18 34C18 42.8366 25.1634 50 34 50C42.8366 50 50 42.8366 50 34C50 25.1634 42.8366 18 34 18C25.1634 18 18 25.1634 18 34Z" fill="url(#paint0_linear_4609_713)"/>
<path fill-rule="evenodd" clip-rule="evenodd" d="M25.5002 25.0999H42.4972V27.7827V29.3981V40.3488C42.5096 40.909 42.5064 41.2249 41.9212 41.6784L41.0843 42.4017C40.9304 42.4928 40.9303 42.5127 40.9315 42.3076L41.0005 31.2363C41.0021 30.9901 40.7863 30.8629 40.5517 30.7888L37.0096 29.6699C36.7743 29.5956 36.5607 29.8713 36.5607 30.1173V42.9999H36.2828H33.0436H31.8091V29.3982H25.5V25.1L25.5002 25.0999Z" fill="#FEFEFE"/>
<path fill-rule="evenodd" clip-rule="evenodd" d="M37.8999 35.7284C36.8926 35.9169 37.1542 37.3068 38.1047 37.1824C39.1034 37.0517 38.8278 35.5546 37.8999 35.7284Z" fill="#FEFEFE"/>
<path d="M69.616 29.228V30.81H67.012V39H65.052V30.81H62.448V29.228H69.616ZM73.0061 32.448C73.2581 32.0373 73.5847 31.7153 73.9861 31.482C74.3967 31.2487 74.8634 31.132 75.3861 31.132V33.19H74.8681C74.2521 33.19 73.7854 33.3347 73.4681 33.624C73.1601 33.9133 73.0061 34.4173 73.0061 35.136V39H71.0461V31.244H73.0061V32.448ZM84.1262 31.244L79.3242 42.668H77.2382L78.9182 38.804L75.8102 31.244H78.0082L80.0102 36.662L82.0402 31.244H84.1262ZM95.1687 29.228V30.81H92.5647V39H90.6047V30.81H88.0007V29.228H95.1687ZM98.5588 32.448C98.8108 32.0373 99.1375 31.7153 99.5388 31.482C99.9495 31.2487 100.416 31.132 100.939 31.132V33.19H100.421C99.8048 33.19 99.3381 33.3347 99.0208 33.624C98.7128 33.9133 98.5588 34.4173 98.5588 35.136V39H96.5988V31.244H98.5588V32.448ZM109.581 31.244V39H107.607V38.02C107.355 38.356 107.024 38.622 106.613 38.818C106.212 39.0047 105.773 39.098 105.297 39.098C104.69 39.098 104.154 38.972 103.687 38.72C103.22 38.4587 102.852 38.0807 102.581 37.586C102.32 37.082 102.189 36.4847 102.189 35.794V31.244H104.149V35.514C104.149 36.13 104.303 36.606 104.611 36.942C104.919 37.2687 105.339 37.432 105.871 37.432C106.412 37.432 106.837 37.2687 107.145 36.942C107.453 36.606 107.607 36.13 107.607 35.514V31.244H109.581ZM118.725 34.954C118.725 35.234 118.706 35.486 118.669 35.71H112.999C113.045 36.27 113.241 36.7087 113.587 37.026C113.932 37.3433 114.357 37.502 114.861 37.502C115.589 37.502 116.107 37.1893 116.415 36.564H118.529C118.305 37.3107 117.875 37.9267 117.241 38.412C116.606 38.888 115.827 39.126 114.903 39.126C114.156 39.126 113.484 38.9627 112.887 38.636C112.299 38.3 111.837 37.8287 111.501 37.222C111.174 36.6153 111.011 35.9153 111.011 35.122C111.011 34.3193 111.174 33.6147 111.501 33.008C111.827 32.4013 112.285 31.9347 112.873 31.608C113.461 31.2813 114.137 31.118 114.903 31.118C115.64 31.118 116.298 31.2767 116.877 31.594C117.465 31.9113 117.917 32.364 118.235 32.952C118.561 33.5307 118.725 34.198 118.725 34.954ZM116.695 34.394C116.685 33.89 116.503 33.4887 116.149 33.19C115.794 32.882 115.36 32.728 114.847 32.728C114.361 32.728 113.951 32.8773 113.615 33.176C113.288 33.4653 113.087 33.8713 113.013 34.394H116.695ZM124.747 39L122.115 35.696V39H120.155V28.64H122.115V34.534L124.719 31.244H127.267L123.851 35.136L127.295 39H124.747ZM132.629 31.132C133.553 31.132 134.3 31.426 134.869 32.014C135.439 32.5927 135.723 33.4047 135.723 34.45V39H133.763V34.716C133.763 34.1 133.609 33.6287 133.301 33.302C132.993 32.966 132.573 32.798 132.041 32.798C131.5 32.798 131.071 32.966 130.753 33.302C130.445 33.6287 130.291 34.1 130.291 34.716V39H128.331V31.244H130.291V32.21C130.553 31.874 130.884 31.6127 131.285 31.426C131.696 31.23 132.144 31.132 132.629 31.132ZM141.031 39.126C140.284 39.126 139.612 38.9627 139.015 38.636C138.418 38.3 137.946 37.8287 137.601 37.222C137.265 36.6153 137.097 35.9153 137.097 35.122C137.097 34.3287 137.27 33.6287 137.615 33.022C137.97 32.4153 138.45 31.9487 139.057 31.622C139.664 31.286 140.34 31.118 141.087 31.118C141.834 31.118 142.51 31.286 143.117 31.622C143.724 31.9487 144.2 32.4153 144.545 33.022C144.9 33.6287 145.077 34.3287 145.077 35.122C145.077 35.9153 144.895 36.6153 144.531 37.222C144.176 37.8287 143.691 38.3 143.075 38.636C142.468 38.9627 141.787 39.126 141.031 39.126ZM141.031 37.418C141.386 37.418 141.717 37.334 142.025 37.166C142.342 36.9887 142.594 36.7273 142.781 36.382C142.968 36.0367 143.061 35.6167 143.061 35.122C143.061 34.3847 142.865 33.82 142.473 33.428C142.09 33.0267 141.619 32.826 141.059 32.826C140.499 32.826 140.028 33.0267 139.645 33.428C139.272 33.82 139.085 34.3847 139.085 35.122C139.085 35.8593 139.267 36.4287 139.631 36.83C140.004 37.222 140.471 37.418 141.031 37.418ZM146.011 35.122C146.011 34.3193 146.174 33.6193 146.501 33.022C146.827 32.4153 147.28 31.9487 147.859 31.622C148.437 31.286 149.1 31.118 149.847 31.118C150.808 31.118 151.601 31.3607 152.227 31.846C152.861 32.322 153.286 32.994 153.501 33.862H151.387C151.275 33.526 151.083 33.2647 150.813 33.078C150.551 32.882 150.225 32.784 149.833 32.784C149.273 32.784 148.829 32.9893 148.503 33.4C148.176 33.8013 148.013 34.3753 148.013 35.122C148.013 35.8593 148.176 36.4333 148.503 36.844C148.829 37.2453 149.273 37.446 149.833 37.446C150.626 37.446 151.144 37.0913 151.387 36.382H153.501C153.286 37.222 152.861 37.8893 152.227 38.384C151.592 38.8787 150.799 39.126 149.847 39.126C149.1 39.126 148.437 38.9627 147.859 38.636C147.28 38.3 146.827 37.8333 146.501 37.236C146.174 36.6293 146.011 35.9247 146.011 35.122ZM161.829 32.854H160.471V39H158.483V32.854H157.601V31.244H158.483V30.852C158.483 29.9 158.753 29.2 159.295 28.752C159.836 28.304 160.653 28.094 161.745 28.122V29.774C161.269 29.7647 160.937 29.844 160.751 30.012C160.564 30.18 160.471 30.4833 160.471 30.922V31.244H161.829V32.854ZM166.543 39.126C165.796 39.126 165.124 38.9627 164.527 38.636C163.929 38.3 163.458 37.8287 163.113 37.222C162.777 36.6153 162.609 35.9153 162.609 35.122C162.609 34.3287 162.781 33.6287 163.127 33.022C163.481 32.4153 163.962 31.9487 164.569 31.622C165.175 31.286 165.852 31.118 166.599 31.118C167.345 31.118 168.022 31.286 168.629 31.622C169.235 31.9487 169.711 32.4153 170.057 33.022C170.411 33.6287 170.589 34.3287 170.589 35.122C170.589 35.9153 170.407 36.6153 170.043 37.222C169.688 37.8287 169.203 38.3 168.587 38.636C167.98 38.9627 167.299 39.126 166.543 39.126ZM166.543 37.418C166.897 37.418 167.229 37.334 167.537 37.166C167.854 36.9887 168.106 36.7273 168.293 36.382C168.479 36.0367 168.573 35.6167 168.573 35.122C168.573 34.3847 168.377 33.82 167.985 33.428C167.602 33.0267 167.131 32.826 166.571 32.826C166.011 32.826 165.539 33.0267 165.157 33.428C164.783 33.82 164.597 34.3847 164.597 35.122C164.597 35.8593 164.779 36.4287 165.143 36.83C165.516 37.222 165.983 37.418 166.543 37.418ZM173.987 32.448C174.239 32.0373 174.565 31.7153 174.967 31.482C175.377 31.2487 175.844 31.132 176.367 31.132V33.19H175.849C175.233 33.19 174.766 33.3347 174.449 33.624C174.141 33.9133 173.987 34.4173 173.987 35.136V39H172.027V31.244H173.987V32.448ZM185.391 31.132C185.979 31.132 186.501 31.2627 186.959 31.524C187.416 31.776 187.771 32.154 188.023 32.658C188.284 33.1527 188.415 33.75 188.415 34.45V39H186.455V34.716C186.455 34.1 186.301 33.6287 185.993 33.302C185.685 32.966 185.265 32.798 184.733 32.798C184.191 32.798 183.762 32.966 183.445 33.302C183.137 33.6287 182.983 34.1 182.983 34.716V39H181.023V28.64H182.983V32.21C183.235 31.874 183.571 31.6127 183.991 31.426C184.411 31.23 184.877 31.132 185.391 31.132ZM193.723 39.126C192.976 39.126 192.304 38.9627 191.707 38.636C191.109 38.3 190.638 37.8287 190.293 37.222C189.957 36.6153 189.789 35.9153 189.789 35.122C189.789 34.3287 189.961 33.6287 190.307 33.022C190.661 32.4153 191.142 31.9487 191.749 31.622C192.355 31.286 193.032 31.118 193.779 31.118C194.525 31.118 195.202 31.286 195.809 31.622C196.415 31.9487 196.891 32.4153 197.237 33.022C197.591 33.6287 197.769 34.3287 197.769 35.122C197.769 35.9153 197.587 36.6153 197.222 37.222C196.868 37.8287 196.383 38.3 195.767 38.636C195.16 38.9627 194.479 39.126 193.723 39.126ZM193.723 37.418C194.077 37.418 194.409 37.334 194.717 37.166C195.034 36.9887 195.286 36.7273 195.473 36.382C195.659 36.0367 195.753 35.6167 195.753 35.122C195.753 34.3847 195.557 33.82 195.165 33.428C194.782 33.0267 194.311 32.826 193.751 32.826C193.191 32.826 192.719 33.0267 192.337 33.428C191.963 33.82 191.777 34.3847 191.777 35.122C191.777 35.8593 191.959 36.4287 192.323 36.83C192.696 37.222 193.163 37.418 193.723 37.418ZM208.838 31.132C209.79 31.132 210.556 31.426 211.134 32.014C211.722 32.5927 212.016 33.4047 212.016 34.45V39H210.056V34.716C210.056 34.1093 209.902 33.6473 209.594 33.33C209.286 33.0033 208.866 32.84 208.334 32.84C207.802 32.84 207.378 33.0033 207.06 33.33C206.752 33.6473 206.598 34.1093 206.598 34.716V39H204.638V34.716C204.638 34.1093 204.484 33.6473 204.176 33.33C203.868 33.0033 203.448 32.84 202.916 32.84C202.375 32.84 201.946 33.0033 201.628 33.33C201.32 33.6473 201.166 34.1093 201.166 34.716V39H199.206V31.244H201.166V32.182C201.418 31.8553 201.74 31.5987 202.132 31.412C202.534 31.2253 202.972 31.132 203.448 31.132C204.055 31.132 204.596 31.2627 205.072 31.524C205.548 31.776 205.917 32.14 206.178 32.616C206.43 32.168 206.794 31.8087 207.27 31.538C207.756 31.2673 208.278 31.132 208.838 31.132ZM221.086 34.954C221.086 35.234 221.067 35.486 221.03 35.71H215.36C215.407 36.27 215.603 36.7087 215.948 37.026C216.293 37.3433 216.718 37.502 217.222 37.502C217.95 37.502 218.468 37.1893 218.776 36.564H220.89C220.666 37.3107 220.237 37.9267 219.602 38.412C218.967 38.888 218.188 39.126 217.264 39.126C216.517 39.126 215.845 38.9627 215.248 38.636C214.66 38.3 214.198 37.8287 213.862 37.222C213.535 36.6153 213.372 35.9153 213.372 35.122C213.372 34.3193 213.535 33.6147 213.862 33.008C214.189 32.4013 214.646 31.9347 215.234 31.608C215.822 31.2813 216.499 31.118 217.264 31.118C218.001 31.118 218.659 31.2767 219.238 31.594C219.826 31.9113 220.279 32.364 220.596 32.952C220.923 33.5307 221.086 34.198 221.086 34.954ZM219.056 34.394C219.047 33.89 218.865 33.4887 218.51 33.19C218.155 32.882 217.721 32.728 217.208 32.728C216.723 32.728 216.312 32.8773 215.976 33.176C215.649 33.4653 215.449 33.8713 215.374 34.394H219.056Z" fill="white"/>
</g>
<defs>
<filter id="filter0_d_4609_713" x="0" y="0" width="240" height="70" filterUnits="userSpaceOnUse" color-interpolation-filters="sRGB">
<feFlood flood-opacity="0" result="BackgroundImageFix"/>
<feColorMatrix in="SourceAlpha" type="matrix" values="0 0 0 0 0 0 0 0 0 0 0 0 0 0 0 0 0 0 127 0" result="hardAlpha"/>
<feOffset dy="1"/>
<feGaussianBlur stdDeviation="3"/>
<feComposite in2="hardAlpha" operator="out"/>
<feColorMatrix type="matrix" values="0 0 0 0 0 0 0 0 0 0 0 0 0 0 0 0 0 0 0.15 0"/>
<feBlend mode="normal" in2="BackgroundImageFix" result="effect1_dropShadow_4609_713"/>
<feBlend mode="normal" in="SourceGraphic" in2="effect1_dropShadow_4609_713" result="shape"/>
</filter>
<linearGradient id="paint0_linear_4609_713" x1="18" y1="34" x2="50" y2="34" gradientUnits="userSpaceOnUse">
<stop stop-color="#926FF3"/>
<stop offset="1" stop-color="#431BB8"/>
</linearGradient>
</defs>
</svg>
