<svg width="100" height="19" viewBox="0 0 100 19" fill="none" xmlns="http://www.w3.org/2000/svg">
<path fill-rule="evenodd" clip-rule="evenodd" d="M41.6139 8.1804C41.9072 9.50319 40.02 10.6174 37.491 10.9983C37.4982 10.4068 37.7136 8.82999 39.2059 8.05388C40.2508 7.52567 41.4747 7.55097 41.6139 8.1804ZM44.5866 12.9153C44.2717 12.9153 42.4108 14.9649 40.032 15.1403C38.3567 15.2733 37.4592 14.0675 37.4592 13.2825C42.6207 12.5526 44.7312 10.5333 44.7312 7.96707C44.7312 6.24286 43.2495 4.43359 40.8142 4.43359C34.5411 4.43359 31.7276 13.8968 35.5585 17.2121C36.6906 18.0934 38.2893 18.1992 39.5352 18.1483C43.8574 17.9312 46.534 12.9153 44.5866 12.9153Z" fill="#431BB8"/>
<path fill-rule="evenodd" clip-rule="evenodd" d="M19.7012 4.80872C18.6862 5.24294 17.626 6.36467 16.9333 7.20403L17.096 6.08875C17.1097 5.9667 17.3835 4.53659 16.3633 4.49315C12.3027 4.31908 11.7096 15.894 12.9564 17.4304C13.9297 18.6308 15.2994 18.2411 15.4313 17.2886C15.5483 16.4564 15.8078 14.7828 15.9958 13.5451C16.2194 12.2562 16.4827 11.4928 16.9476 10.4397C18.1089 7.8011 18.6291 8.99749 19.2592 10.1846C19.9662 11.516 21.1999 11.6077 22.6205 11.2159C22.1138 8.36908 23.0976 3.35805 19.7012 4.80872Z" fill="#431BB8"/>
<path fill-rule="evenodd" clip-rule="evenodd" d="M33.7937 15.9456C32.9175 15.6216 32.5805 14.2409 32.7029 13.1637L33.7477 6.08683C33.7603 5.96579 34.0356 4.53568 33.015 4.49117C31.9387 4.44503 30.5264 4.94421 30.285 6.47418C30.0488 7.97308 29.9493 8.82776 29.7585 10.0446C29.6074 11.0648 29.4166 12.1007 29.3315 13.0785C29.138 14.012 28.807 14.4636 27.8244 14.4697C26.5779 14.3405 26.6052 13.2495 26.7362 12.3294L27.6046 6.10321C27.6173 5.98115 27.8925 4.53636 26.8713 4.49292C23.9281 4.36686 23.9847 7.50988 23.9847 7.50982C23.7184 9.37032 23.3951 11.0706 23.2083 12.8672C23.1743 13.5366 23.1618 14.2066 23.1807 14.8512C23.2661 15.5987 23.4928 16.2713 23.9501 16.8237C25.8699 19.142 28.7537 17.994 30.2433 16.981C30.9631 17.9584 32.3486 17.7628 33.6712 17.4545L33.7937 15.9456Z" fill="#431BB8"/>
<path fill-rule="evenodd" clip-rule="evenodd" d="M10.5601 12.6891C10.8416 12.197 11.0964 11.6902 11.3234 11.1708L11.3984 14.6674C11.3379 14.7994 11.2742 14.9307 11.2072 15.062C10.9062 15.6444 10.5399 16.2292 10.0252 16.76C9.75795 17.036 9.46019 17.2808 9.13762 17.4897C8.80038 17.704 8.42117 17.8804 8.01778 17.9988C7.61304 18.1157 7.19412 18.1762 6.77283 18.1784C6.559 18.1792 6.28309 18.1656 6.05558 18.1301C5.31992 18.0187 4.63504 17.6886 4.09011 17.1828C3.7262 16.8462 3.44623 16.462 3.23646 16.0794C3.03776 15.7176 2.87978 15.3352 2.7653 14.9388C2.65234 14.565 2.58049 14.1994 2.52729 13.8425C2.42562 13.1289 2.40947 12.445 2.43127 11.7797C2.45443 11.1273 2.51204 10.4767 2.60393 9.83042C2.67171 9.35762 2.75479 8.89046 2.85002 8.4281C1.69945 8.09221 0.00186488 7.45425 0.00186488 6.74547C0.00186488 6.74547 -0.0747795 5.99071 0.75464 5.99071H3.47447C3.64391 5.43335 3.83194 4.88316 4.03764 4.33789C4.24995 3.75845 4.48214 3.18646 4.73393 2.623C5.04057 2.08174 6.35408 -1.33911 8.96982 0.577925C9.80653 1.29236 9.98484 1.59284 9.30063 2.884C8.76892 3.8892 8.23721 4.7833 7.82575 5.79014L7.74509 5.98991H9.62901C10.7344 5.98991 11.0087 5.98991 10.7747 7.33186C10.6174 8.2372 10.6626 8.02776 10.5972 8.41116C10.5141 8.90091 10.0179 9.35039 9.14655 9.28752C8.78343 9.26177 7.77412 9.16592 6.68489 9.04511C6.55741 9.5139 6.44361 9.98428 6.35166 10.4531C6.24677 10.975 6.16205 11.4945 6.1128 12.002C6.08783 12.2557 6.07168 12.5062 6.06524 12.7503C6.05338 13.1224 6.06711 13.4949 6.10636 13.8651C6.14674 14.1309 6.48478 15.907 8.33323 15.1088C8.40021 15.0747 8.46584 15.0381 8.53012 14.9992C8.90933 14.7664 9.28769 14.4281 9.62985 14.0286C9.80088 13.8296 9.96467 13.6154 10.1188 13.3898C10.2745 13.1659 10.4205 12.9307 10.5601 12.6891Z" fill="#431BB8"/>
<path fill-rule="evenodd" clip-rule="evenodd" d="M94.2018 18.1592C92.2688 18.1592 90.6534 17.5092 89.3539 16.2094C88.0711 14.9099 87.4297 13.3023 87.4297 11.3869C87.4297 9.47158 88.0711 7.86401 89.3539 6.5642C90.6534 5.26468 92.2688 4.61475 94.2018 4.61475C95.4496 4.61475 96.5876 4.91404 97.6134 5.51252C98.6392 6.11105 99.4174 6.91484 99.9478 7.92393L97.1 9.59109C96.8443 9.06102 96.4507 8.64193 95.9204 8.33416C95.407 8.02639 94.8262 7.87254 94.176 7.87254C93.1839 7.87254 92.3631 8.20611 91.7138 8.87305C91.0636 9.5227 90.7385 10.3608 90.7385 11.3869C90.7385 12.396 91.0636 13.2339 91.7138 13.9008C92.3631 14.5507 93.1839 14.8755 94.176 14.8755C94.8429 14.8755 95.4329 14.7302 95.9462 14.4394C96.4763 14.1316 96.8692 13.7125 97.1259 13.1825L99.9992 14.8242C99.4344 15.8332 98.6392 16.6455 97.6134 17.2614C96.5876 17.8599 95.4496 18.1592 94.2018 18.1592Z" fill="#431BB8"/>
<path fill-rule="evenodd" clip-rule="evenodd" d="M84.5597 16.2094C83.2425 17.5092 81.6353 18.1592 79.7369 18.1592C77.8387 18.1592 76.2314 17.5092 74.9146 16.2094C73.6148 14.8926 72.9648 13.285 72.9648 11.3869C72.9648 9.48864 73.6148 7.88954 74.9146 6.59001C76.2314 5.27321 77.8387 4.61475 79.7369 4.61475C81.6353 4.61475 83.2425 5.27321 84.5597 6.59001C85.8762 7.88954 86.5343 9.48864 86.5343 11.3869C86.5343 13.285 85.8762 14.8926 84.5597 16.2094ZM77.2487 13.9264C77.9156 14.5933 78.7453 14.9269 79.7369 14.9269C80.7287 14.9269 81.5583 14.5933 82.2253 13.9264C82.8922 13.2594 83.2255 12.4131 83.2255 11.3869C83.2255 10.3608 82.8922 9.51417 82.2253 8.84724C81.5583 8.1803 80.7287 7.84695 79.7369 7.84695C78.7453 7.84695 77.9156 8.1803 77.2487 8.84724C76.599 9.51417 76.2739 10.3608 76.2739 11.3869C76.2739 12.4131 76.599 13.2594 77.2487 13.9264Z" fill="#431BB8"/>
<path fill-rule="evenodd" clip-rule="evenodd" d="M66.7325 4.61475C68.1348 4.61475 69.2892 5.08495 70.1955 6.02559C71.1188 6.96624 71.5808 8.26576 71.5808 9.92473V17.7999H68.2717V10.3353C68.2717 9.48011 68.0409 8.83018 67.5789 8.38556C67.1172 7.92393 66.5017 7.69309 65.732 7.69309C64.8771 7.69309 64.1932 7.95799 63.6801 8.48807C63.1671 9.01843 62.9104 9.81341 62.9104 10.8739V17.7999H59.6016V4.97391H62.9104V6.41029C63.7142 5.21328 64.9881 4.61475 66.7325 4.61475Z" fill="#431BB8"/>
<path fill-rule="evenodd" clip-rule="evenodd" d="M58.9601 17.718H55.0331L50.2681 11.9774V17.718H46.8906V0.015625H50.2681V10.6371L54.7712 5.07348H58.8032L53.5407 11.3199L58.9601 17.718Z" fill="#431BB8"/>
</svg>
