<svg width="320" height="319" viewBox="0 0 320 319" fill="none" xmlns="http://www.w3.org/2000/svg">
<path d="M11.2 0C7.27963 0 5.31945 0 3.82207 0.762954C2.50493 1.43407 1.43407 2.50493 0.762954 3.82207C0 5.31945 0 7.27963 0 11.2V76.149C0 79.3804 2.6196 82 5.85104 82C9.08248 82 11.7021 79.3804 11.7021 76.149C11.7021 58.4 11.7021 40.651 11.7021 22.9021C11.7021 18.9817 11.7021 17.0215 12.465 15.5241C13.1362 14.207 14.207 13.1362 15.5241 12.465C17.0215 11.7021 18.9817 11.7021 22.9021 11.7021C40.651 11.7021 58.4 11.7021 76.149 11.7021C79.3804 11.7021 82 9.08248 82 5.85104C82 2.6196 79.3804 0 76.149 0H11.2Z" fill="white"/>
<path d="M305.012 0C311.611 0 314.911 0 316.961 2.05025C319.012 4.10051 319.012 7.40034 319.012 14V76.149C319.012 79.3804 316.392 82 313.161 82C309.929 82 307.31 79.3804 307.31 76.149C307.31 59.3333 307.31 42.5177 307.31 25.7021C307.31 19.1024 307.31 15.8026 305.259 13.7523C303.209 11.7021 299.909 11.7021 293.31 11.7021C276.494 11.7021 259.678 11.7021 242.863 11.7021C239.631 11.7021 237.012 9.08248 237.012 5.85104C237.012 2.6196 239.631 0 242.863 0H305.012Z" fill="white"/>
<path d="M11.69 319C7.30636 319 5.11453 319 3.48414 318.053C2.43236 317.442 1.55793 316.568 0.947006 315.516C0 313.885 0 311.694 0 307.31V242.851C0 239.62 2.6196 237 5.85104 237C9.08248 237 11.7021 239.62 11.7021 242.851C11.7021 260.437 11.7021 278.022 11.7021 295.608C11.7021 299.992 11.7021 302.183 12.6491 303.814C13.26 304.866 14.1344 305.74 15.1862 306.351C16.8166 307.298 19.0084 307.298 23.3921 307.298C40.9777 307.298 58.5633 307.298 76.149 307.298C79.3804 307.298 82 309.918 82 313.149C82 316.38 79.3804 319 76.149 319H11.69Z" fill="white"/>
<path d="M307.8 319C311.72 319 313.681 319 315.178 318.237C316.495 317.566 317.566 316.495 318.237 315.178C319 313.681 319 311.72 319 307.8V242.851C319 239.62 316.38 237 313.149 237C309.918 237 307.298 239.62 307.298 242.851C307.298 260.6 307.298 278.349 307.298 296.098C307.298 300.018 307.298 301.978 306.535 303.476C305.864 304.793 304.793 305.864 303.476 306.535C301.978 307.298 300.018 307.298 296.098 307.298C278.349 307.298 260.6 307.298 242.851 307.298C239.62 307.298 237 309.918 237 313.149C237 316.38 239.62 319 242.851 319H307.8Z" fill="white"/>
<path d="M47 47.001C47 71.9944 47 96.9878 47 121.981C71.9993 121.981 96.9986 121.981 121.998 121.981C121.998 96.9878 121.998 71.9944 121.998 47.001C96.9986 47.001 71.9993 47.001 47 47.001ZM57.714 57.7124C75.5706 57.7124 93.4273 57.7124 111.284 57.7124C111.284 75.5649 111.284 93.4173 111.284 111.27C93.4273 111.27 75.5706 111.27 57.714 111.27C57.714 93.4173 57.714 75.5649 57.714 57.7124Z" fill="white"/>
<path d="M68.4258 68.449H100.568V100.583H68.4258V68.449Z" fill="white"/>
<path d="M132.703 47C132.703 54.1335 132.703 61.2671 132.703 68.4006H143.406V57.7003H154.109V47C146.974 47 139.838 47 132.703 47Z" fill="white"/>
<path d="M164.891 47V57.7003C172.026 57.7003 179.161 57.7003 186.296 57.7003V47C179.161 47 172.026 47 164.891 47Z" fill="white"/>
<path d="M132.703 79.1013C132.703 86.2609 132.703 93.4205 132.703 100.58H143.406C143.406 93.4205 143.406 86.2609 143.406 79.1013H132.703Z" fill="white"/>
<path d="M218.422 68.449H250.564V100.583H218.422V68.449Z" fill="white"/>
<path d="M100.598 143.381C100.598 150.541 100.598 157.7 100.598 164.86C107.733 164.86 114.868 164.86 122.003 164.86V154.082H111.3V143.381H100.598Z" fill="white"/>
<path d="M111.289 132.681V143.381C118.424 143.381 125.559 143.381 132.695 143.381V132.681C125.559 132.681 118.424 132.681 111.289 132.681Z" fill="white"/>
<path d="M122 164.86C122 171.993 122 179.127 122 186.26C129.135 186.26 136.27 186.26 143.406 186.26V175.56H132.703V164.86H122Z" fill="white"/>
<path d="M68.4258 218.409H100.568V250.543H68.4258V218.409Z" fill="white"/>
<path d="M68.3984 143.381V154.082H79.1013V164.86H89.8822C89.8822 157.7 89.8822 150.541 89.8822 143.381C82.7209 143.381 75.5597 143.381 68.3984 143.381Z" fill="white"/>
<path d="M89.8555 132.692V143.403H100.569V132.692H89.8555Z" fill="white"/>
<path d="M47 154.081C47 164.807 47 175.533 47 186.26H57.7028V175.559H68.4057V164.859H57.7028V154.081H47Z" fill="white"/>
<path d="M143.406 186.26V196.961C150.567 196.961 157.729 196.961 164.89 196.961V186.26C157.729 186.26 150.567 186.26 143.406 186.26Z" fill="white"/>
<path d="M100.574 186.249V175.537H111.288V186.249H100.574Z" fill="white"/>
<path d="M196.992 175.56C196.992 182.694 196.992 189.827 196.992 196.961H207.695C207.695 189.827 207.695 182.694 207.695 175.56H196.992Z" fill="white"/>
<path d="M164.891 154.081C164.891 161.24 164.891 168.4 164.891 175.559H175.593V164.859H186.296V154.081C179.161 154.081 172.026 154.081 164.891 154.081Z" fill="white"/>
<path d="M143.406 154.081C143.406 161.24 143.406 168.4 143.406 175.559H154.109C154.109 168.4 154.109 161.24 154.109 154.081H143.406Z" fill="white"/>
<path d="M239.863 196.96V186.249H250.577V196.96H239.863Z" fill="white"/>
<path d="M186.285 154.116V143.404H196.999V154.116H186.285Z" fill="white"/>
<path d="M154.109 218.361V229.061C146.974 229.061 139.838 229.061 132.703 229.061C132.703 236.221 132.703 243.38 132.703 250.54H143.406V239.84C150.567 239.84 157.728 239.84 164.89 239.84C164.89 232.68 164.89 225.52 164.89 218.361H154.109Z" fill="white"/>
<path d="M68.3984 175.56V186.26C75.5597 186.26 82.7209 186.26 89.8822 186.26V175.56C82.7209 175.56 75.5597 175.56 68.3984 175.56Z" fill="white"/>
<path d="M154.102 132.681C154.102 139.814 154.102 146.948 154.102 154.081H164.883C164.883 146.948 164.883 139.814 164.883 132.681H154.102Z" fill="white"/>
<path d="M196.992 154.081V164.859H207.695V175.559H218.398C218.398 168.4 218.398 161.24 218.398 154.081C211.263 154.081 204.127 154.081 196.992 154.081Z" fill="white"/>
<path d="M229.102 154.081C229.102 161.24 229.102 168.4 229.102 175.559H239.883V164.859H250.585V154.081C243.424 154.081 236.263 154.081 229.102 154.081Z" fill="white"/>
<path d="M218.406 132.681C218.406 139.814 218.406 146.948 218.406 154.081H229.109C229.109 146.948 229.109 139.814 229.109 132.681H218.406Z" fill="white"/>
<path d="M218.422 186.249V175.537H229.136V186.249H218.422Z" fill="white"/>
<path d="M196.992 207.661V218.361H207.695C207.695 225.521 207.695 232.68 207.695 239.84H218.398C218.398 228.156 218.398 219.136 218.398 207.661C211.263 207.661 204.127 207.661 196.992 207.661Z" fill="white"/>
<path d="M175.594 218.361V229.061C182.729 229.061 189.864 229.061 196.999 229.061V218.361C189.864 218.361 182.729 218.361 175.594 218.361Z" fill="white"/>
<path d="M229.109 250.541V261.241H218.406V271.941C225.568 271.941 232.729 271.941 239.89 271.941C239.89 264.808 239.89 257.674 239.89 250.541H229.109Z" fill="white"/>
<path d="M175.594 175.56C175.594 186.26 175.594 196.961 175.594 207.661C182.729 207.661 189.864 207.661 196.999 207.661V196.961H186.297C186.297 189.827 186.297 182.694 186.297 175.56H175.594Z" fill="white"/>
<path d="M218.406 196.96V207.66H229.109V218.361H239.89C239.89 211.227 239.89 204.093 239.89 196.96C232.729 196.96 225.568 196.96 218.406 196.96Z" fill="white"/>
<path d="M197 239.84V250.54H186.297V261.24H197V271.941H207.703C207.703 261.24 207.703 250.54 207.703 239.84H197Z" fill="white"/>
<path d="M132.703 196.96C132.703 204.093 132.703 211.227 132.703 218.361C139.838 218.361 146.974 218.361 154.109 218.361V207.66H143.406V196.96H132.703Z" fill="white"/>
<path d="M164.891 261.24V271.94C172.026 271.94 179.161 271.94 186.296 271.94V261.24C179.161 261.24 172.026 261.24 164.891 261.24Z" fill="white"/>
<path d="M250.593 207.661V218.361H239.891V229.061C247.026 229.061 254.161 229.061 261.296 229.061V218.361H271.999V207.661C264.864 207.661 257.729 207.661 250.593 207.661Z" fill="white"/>
<path d="M239.891 239.84V250.54C247.026 250.54 254.161 250.54 261.296 250.54V239.84C254.161 239.84 247.026 239.84 239.891 239.84Z" fill="white"/>
<path d="M261.293 250.541V261.241H250.59V271.941C257.725 271.941 264.86 271.941 271.995 271.941C271.995 264.808 271.995 257.674 271.995 250.541H261.293Z" fill="white"/>
<path d="M229.137 239.806V229.095H239.851V239.806H229.137Z" fill="white"/>
<path d="M164.891 68.4006C164.891 75.5602 164.891 82.7198 164.891 89.8793H175.593V79.1009H186.296V68.4006C179.161 68.4006 172.026 68.4006 164.891 68.4006Z" fill="white"/>
<path d="M261.281 239.806V229.095H271.995V239.806H261.281Z" fill="white"/>
<path d="M143.406 100.58V111.28H132.703V121.98H143.406V132.68H154.109V121.98H164.89V111.28H154.109V100.58H143.406Z" fill="white"/>
<path d="M261.297 143.381C261.297 150.541 261.297 157.7 261.297 164.86H272C272 157.7 272 150.541 272 143.381H261.297Z" fill="white"/>
<path d="M196.992 143.404V132.693H207.706V143.404H196.992Z" fill="white"/>
<path d="M250.59 164.86C250.59 171.993 250.59 179.127 250.59 186.26H261.293V196.961H271.995C271.995 189.827 271.995 182.693 271.995 175.56H261.293V164.86H250.59Z" fill="white"/>
<path d="M239.891 132.681V143.381C247.026 143.381 254.161 143.381 261.296 143.381V132.681C254.161 132.681 247.026 132.681 239.891 132.681Z" fill="white"/>
<path d="M175.566 89.8462V100.558H186.28V89.8462H175.566Z" fill="white"/>
<path d="M132.703 261.24V271.94C139.838 271.94 146.974 271.94 154.109 271.94V261.24C146.974 261.24 139.838 261.24 132.703 261.24Z" fill="white"/>
<path d="M218.422 250.518V239.806H229.136V250.518H218.422Z" fill="white"/>
<path d="M154.145 261.229V250.518H164.859V261.229H154.145Z" fill="white"/>
<path d="M154.145 100.558V89.8462H164.858V100.558H154.145Z" fill="white"/>
<path d="M175.594 111.28C175.594 121.98 175.594 132.68 175.594 143.381H186.297C186.297 132.68 186.297 121.98 186.297 111.28H175.594Z" fill="white"/>
<path d="M89.8555 164.826V175.537H100.569V164.826H89.8555Z" fill="white"/>
<path d="M143.422 79.1348V68.4233H154.136V79.1348H143.422Z" fill="white"/>
<path d="M132.719 154.114V143.403H143.433V154.114H132.719Z" fill="white"/>
<path d="M175.566 250.518V239.806H186.28V250.518H175.566Z" fill="white"/>
<path d="M47 132.681V143.381C54.1352 143.381 61.2704 143.381 68.4057 143.381V132.681C61.2704 132.681 54.1352 132.681 47 132.681Z" fill="white"/>
<path d="M196.992 47.001C196.992 71.9944 196.992 96.9878 196.992 121.981C221.991 121.981 246.991 121.981 271.99 121.981C271.99 96.9878 271.99 71.9944 271.99 47.001C246.991 47.001 221.991 47.001 196.992 47.001ZM207.706 57.7124C225.563 57.7124 243.419 57.7124 261.276 57.7124C261.276 75.5649 261.276 93.4173 261.276 111.27C243.419 111.27 225.563 111.27 207.706 111.27C207.706 93.4173 207.706 75.5649 207.706 57.7124Z" fill="white"/>
<path d="M47 196.96C47 221.953 47 246.947 47 271.94C71.9993 271.94 96.9986 271.94 121.998 271.94C121.998 246.947 121.998 221.953 121.998 196.96C96.9986 196.96 71.9993 196.96 47 196.96ZM57.714 207.671C75.5706 207.671 93.4273 207.671 111.284 207.671C111.284 225.524 111.284 243.376 111.284 261.229C93.4273 261.229 75.5706 261.229 57.714 261.229C57.714 243.376 57.714 225.524 57.714 207.671Z" fill="white"/>
<path d="M164.852 218.384V207.672H175.566V218.384H164.852Z" fill="white"/>
</svg>
