<svg width="48" height="48" viewBox="5 5 48 48" fill="none" xmlns="http://www.w3.org/2000/svg">
<rect x="0.650781" y="0.650049" width="56.3" height="56.3" rx="2.65" stroke="white" stroke-width="1.3" stroke-miterlimit="2.16568" stroke-linecap="round" stroke-dasharray="22 22"/>
<path d="M9.16016 9.14185V11.0126V12.8833V14.7541V16.6248V18.4956V20.3663V22.2371H11.0309H12.9017H14.7724H16.6431H18.5139H20.3846H22.2554V20.3663V18.4956V16.6248V14.7541V12.8833V11.0126V9.14185H20.3846H18.5139H16.6431H14.7724H12.9017H11.0309H9.16016ZM24.1261 9.14185V11.0126V12.8833H25.9969V11.0126H27.8676V9.14185H25.9969H24.1261ZM27.8676 11.0126V12.8833H29.7384V11.0126H27.8676ZM29.7384 12.8833V14.7541H31.6091H33.4799V12.8833V11.0126V9.14185H31.6091V11.0126V12.8833H29.7384ZM29.7384 14.7541H27.8676H25.9969H24.1261V16.6248H25.9969H27.8676V18.4956H25.9969V20.3663H27.8676V22.2371H29.7384V20.3663H31.6091V22.2371H29.7384V24.1078H27.8676V25.9786H29.7384H31.6091V27.8493H33.4799V25.9786V24.1078V22.2371V20.3663V18.4956H31.6091V16.6248H29.7384V14.7541ZM31.6091 27.8493H29.7384V29.7201H27.8676V31.5908V33.4616H29.7384V35.3323V37.2031H27.8676H25.9969V35.3323H27.8676V33.4616H25.9969V31.5908V29.7201H24.1261V27.8493H25.9969V29.7201H27.8676V27.8493V25.9786H25.9969H24.1261V24.1078H22.2554H20.3846H18.5139V25.9786H16.6431V27.8493H14.7724V25.9786H16.6431V24.1078H14.7724H12.9017V25.9786H11.0309V27.8493V29.7201V31.5908H12.9017V29.7201H14.7724H16.6431H18.5139V27.8493H20.3846V25.9786H22.2554V27.8493H20.3846V29.7201H22.2554V31.5908H20.3846V33.4616H22.2554H24.1261V35.3323V37.2031V39.0738H25.9969V40.9446H27.8676H29.7384H31.6091V42.8153H29.7384H27.8676H25.9969V40.9446H24.1261V42.8153V44.6861H25.9969V46.5568H24.1261V48.4276H25.9969H27.8676V46.5568H29.7384V48.4276H31.6091H33.4799H35.3506H37.2214V46.5568H39.0921V48.4276H40.9629H42.8336H44.7044V46.5568H42.8336H40.9629V44.6861H39.0921V42.8153H37.2214V44.6861H35.3506H33.4799V46.5568H31.6091V44.6861H33.4799V42.8153V40.9446V39.0738H35.3506V37.2031H33.4799H31.6091V35.3323H33.4799V33.4616V31.5908V29.7201H31.6091V27.8493ZM37.2214 42.8153V40.9446H35.3506V42.8153H37.2214ZM40.9629 44.6861H42.8336H44.7044V42.8153H42.8336H40.9629V44.6861ZM44.7044 42.8153H46.5751V40.9446V39.0738V37.2031V35.3323H44.7044H42.8336H40.9629V33.4616H39.0921V35.3323H37.2214V37.2031V39.0738H39.0921V37.2031H40.9629V39.0738V40.9446H42.8336H44.7044V42.8153ZM39.0921 33.4616V31.5908H37.2214H35.3506V33.4616H37.2214H39.0921ZM40.9629 33.4616H42.8336V31.5908V29.7201V27.8493H44.7044V29.7201H46.5751V31.5908H48.4459V29.7201V27.8493H46.5751V25.9786H48.4459V24.1078H46.5751H44.7044V25.9786H42.8336V24.1078H40.9629V25.9786H39.0921V27.8493H40.9629V29.7201V31.5908V33.4616ZM39.0921 27.8493H37.2214V29.7201H39.0921V27.8493ZM46.5751 31.5908H44.7044V33.4616H46.5751V31.5908ZM20.3846 31.5908V29.7201H18.5139V31.5908H20.3846ZM18.5139 31.5908H16.6431H14.7724H12.9017V33.4616H14.7724H16.6431H18.5139V31.5908ZM11.0309 31.5908H9.16016V33.4616H11.0309V31.5908ZM11.0309 25.9786V24.1078H9.16016V25.9786H11.0309ZM24.1261 24.1078H25.9969V22.2371V20.3663H24.1261V22.2371V24.1078ZM35.3506 9.14185V11.0126V12.8833V14.7541V16.6248V18.4956V20.3663V22.2371H37.2214H39.0921H40.9629H42.8336H44.7044H46.5751H48.4459V20.3663V18.4956V16.6248V14.7541V12.8833V11.0126V9.14185H46.5751H44.7044H42.8336H40.9629H39.0921H37.2214H35.3506ZM11.0309 11.0126H12.9017H14.7724H16.6431H18.5139H20.3846V12.8833V14.7541V16.6248V18.4956V20.3663H18.5139H16.6431H14.7724H12.9017H11.0309V18.4956V16.6248V14.7541V12.8833V11.0126ZM37.2214 11.0126H39.0921H40.9629H42.8336H44.7044H46.5751V12.8833V14.7541V16.6248V18.4956V20.3663H44.7044H42.8336H40.9629H39.0921H37.2214V18.4956V16.6248V14.7541V12.8833V11.0126ZM12.9017 12.8833V14.7541V16.6248V18.4956H14.7724H16.6431H18.5139V16.6248V14.7541V12.8833H16.6431H14.7724H12.9017ZM39.0921 12.8833V14.7541V16.6248V18.4956H40.9629H42.8336H44.7044V16.6248V14.7541V12.8833H42.8336H40.9629H39.0921ZM35.3506 24.1078V25.9786H37.2214V24.1078H35.3506ZM9.16016 35.3323V37.2031V39.0738V40.9446V42.8153V44.6861V46.5568V48.4276H11.0309H12.9017H14.7724H16.6431H18.5139H20.3846H22.2554V46.5568V44.6861V42.8153V40.9446V39.0738V37.2031V35.3323H20.3846H18.5139H16.6431H14.7724H12.9017H11.0309H9.16016ZM11.0309 37.2031H12.9017H14.7724H16.6431H18.5139H20.3846V39.0738V40.9446V42.8153V44.6861V46.5568H18.5139H16.6431H14.7724H12.9017H11.0309V44.6861V42.8153V40.9446V39.0738V37.2031ZM12.9017 39.0738V40.9446V42.8153V44.6861H14.7724H16.6431H18.5139V42.8153V40.9446V39.0738H16.6431H14.7724H12.9017ZM46.5751 44.6861V46.5568H48.4459V44.6861H46.5751Z" fill="white"/>
</svg>
